<?xml version="1.0" encoding="utf-8"?>
<!-- Generator: Adobe Illustrator 16.0.0, SVG Export Plug-In . SVG Version: 6.00 Build 0)  -->
<!DOCTYPE svg PUBLIC "-//W3C//DTD SVG 1.1//EN" "http://www.w3.org/Graphics/SVG/1.1/DTD/svg11.dtd">
<svg version="1.1" id="Layer_1" xmlns="http://www.w3.org/2000/svg" xmlns:xlink="http://www.w3.org/1999/xlink" x="0px" y="0px"
     width="259.871px" height="244.871px" viewBox="0 0 259.871 244.871" enable-background="new 0 0 259.871 244.871"
     xml:space="preserve">
<g>
	<path fill="#CF2027" d="M93.978,201.929l-39.177,34.686l1.217-7.196c2.879-17.029,5.547-35.858,5.759-42.349
		c-8.563,1.744-31.906,5.214-39.837,6.378l-5.5,0.807l2.94-4.718c5.789-9.29,13.785-22.456,16.617-27.731
		C25.345,157.6-6.821,140.788-26.781,130.21l-6.933-3.674l79.954-11.849L13.883,48.841l6.132,2.354
		c14.579,5.597,37.156,14.096,45.369,16.817c-0.132-5.007,0.021-15.685,0.958-39.07l0.302-7.546l29.531,41.594l11.37-49.727
		l32.723,33.817L169.699,2.47l7.115,40.631l27.13-41.147l-0.055,8.686c-0.157,25.087,0.265,53.204,1.341,59.295
		c0.059,0.001,0.12,0.001,0.185,0.001c9.504,0,47.857-8.807,48.244-8.896l6.213-1.431l-29.003,44.612l28.592,34.699l-5.186,0.207
		c-10.3,0.411-21.653,1.076-26.22,1.625c1.798,5.348,8.604,20.256,15.112,33.584l2.119,4.34l-54.596-7.501l11.718,44.408
		l-43.54-33.091L150,228.675l-29.262-32.318l-4.688,51.014L93.978,201.929z"/>
    <path d="M168.28,9.298l7.115,40.635l25.918-39.31c0,0-0.369,58.803,1.911,61.478c0.242,0.284,1.012,0.412,2.19,0.412
		c9.907,0,48.822-8.962,48.822-8.962l-26.558,40.851l26.493,32.151c0,0-27.312,1.09-29.025,2.168
		c-1.714,1.074,15.706,36.746,15.706,36.746l-53.639-7.37l10.794,40.906l-40.887-31.074l-8.678,45.189l-29.734-32.84l-4.379,47.655
		L94.812,197.75l-36.254,32.098c0,0,7.764-45.911,5.306-45.915c-0.03,0-0.062,0.007-0.095,0.021
		c-2.747,1.154-42.202,6.945-42.202,6.945s19.159-30.746,17.886-30.746c-0.022,0-0.05,0.009-0.084,0.027
		c-0.033,0.018-0.082,0.026-0.146,0.026c-3.898,0-64.797-32.272-64.797-32.272l75.683-11.216L19.091,53.6
		c0,0,46.448,17.831,48.979,17.831c0.094,0,0.127-0.024,0.095-0.076c-0.888-1.424,0.75-42.31,0.75-42.31L97.403,69.17l11.593-50.703
		l31.652,32.711L168.28,9.298 M206.574-6.716l-9.562,14.503L178.233,36.27l-4.879-27.86l-2.235-12.769l-7.139,10.82l-24.096,36.52
		l-27.186-28.096l-6.607-6.828l-2.118,9.262l-9.029,39.489L73.116,26.062l-8.744-12.316l-0.604,15.093
		c-0.004,0.103-0.414,10.37-0.709,20.679c-0.193,6.711-0.294,11.461-0.313,14.866c-9.021-3.166-26.222-9.611-41.807-15.594
		L8.674,44.082l5.793,11.79l27.904,56.785l-68.702,10.181l-15.523,2.3l13.866,7.348c0.153,0.081,15.435,8.177,30.996,16.168
		c15.906,8.168,24.484,12.343,29.307,14.476c-3.256,5.722-9.402,15.866-15.122,25.045l-5.88,9.437l11.001-1.614
		c17.381-2.552,29.646-4.483,36.682-5.776c-0.708,8.094-3.062,24.247-5.518,38.769l-2.434,14.393l10.929-9.676l31.171-27.598
		l16.553,34.077l8.074,16.621l1.691-18.4l3.305-35.971l21.858,24.142l6.932,7.655l1.947-10.142l7.111-37.035l34.276,26.05
		l11.918,9.058l-3.819-14.474l-8.823-33.437l45.985,6.318l9.569,1.315l-4.238-8.68c-5.315-10.885-11.143-23.514-13.836-30.218
		c5.531-0.462,14.682-0.967,22.73-1.288l10.371-0.414l-6.601-8.01l-24.09-29.235l24.498-37.683l6.949-10.69l-12.425,2.861
		c-9.862,2.271-35.702,7.892-45.584,8.726c-0.821-8.773-1.174-33.902-1.032-56.601L206.574-6.716L206.574-6.716z"/>
</g>
    <g>
	<path fill="#FDB913" d="M7.962,197.147l11.899-9.253l-6.342-51.238l-6.504,3.872L0,118.109l58.354-30.147l13.592,23.901
		l-12.32,22.58c9.015,8.351,20.847,13.042,20.971,13.091l2.107,0.825l-6.921,27.813L17.009,220.13L7.962,197.147z M44.358,175.047
		l10.794-6.66l-2.879-12.028l-10.067,5.247L44.358,175.047z M38.205,140.974l10.323-7.701l-4.054-8.562l-9.226,5.966L38.205,140.974
		z"/>
        <path d="M57.338,91.386l11.66,20.503l-12.573,23.044c9.649,9.696,23.235,15,23.235,15l-6.154,24.726l-55.337,41.386l-7.104-18.047
		l11.533-8.968l-7.007-56.604L8.5,136.646l-5.395-17.242L57.338,91.386 M36.758,145.267l15-11.19l-6.214-13.125l-13.3,8.6
		L36.758,145.267 M42.425,179.267l15.667-9.667l-4.082-17.051l-14.642,7.631L42.425,179.267 M59.371,84.538l-4.397,2.271
		L0.74,114.828l-3.844,1.986l1.292,4.13l5.395,17.241l1.948,6.225l5.604-3.336l0.313-0.186l5.678,45.872l-9.223,7.171l-3.043,2.367
		l1.412,3.587l7.104,18.047l2.473,6.282l5.406-4.043l55.337-41.386l1.471-1.1l0.443-1.782l6.154-24.726l1.094-4.396l-4.22-1.647
		c-0.109-0.043-10.271-4.086-18.665-11.255l10.652-19.523l1.375-2.52l-1.418-2.495l-11.66-20.503L59.371,84.538L59.371,84.538z
		 M38.251,131.802l5.153-3.332l1.893,3.999l-5.645,4.211L38.251,131.802L38.251,131.802z M45.042,163.032l5.494-2.863l1.677,7.004
		l-5.922,3.654L45.042,163.032L45.042,163.032z"/>
</g>
    <g>
	<path fill="#FDB913" d="M83.483,80.385l28.965-17.13l28.799,91.068l-20.854,16.586l-5.246-26.23l-14.734,5.17l-5.037,34.174
		l-18.471,1.326L83.483,80.385z M103.279,111.092c-0.787,6.388-1.794,14.536-2.463,19.828l8.869-4.605L103.279,111.092z"/>
        <path d="M110.97,67.122l27.287,86.288l-16.166,12.856l-5-25l-19,6.667l-4.963,33.668l-13.468,0.967l6.309-100.661L110.97,67.122
		 M97.627,135.479l15.353-7.973l-11.079-26.33C101.901,101.176,98.234,131.13,97.627,135.479 M113.927,59.388l-5.58,3.3
		L83.346,77.473l-2.349,1.389l-0.17,2.723l-6.309,100.661l-0.369,5.883l5.879-0.422l13.468-0.967l4.125-0.296l0.603-4.092
		l4.509-30.588l10.468-3.674l3.837,19.187l1.655,8.273l6.604-5.252l16.166-12.856l2.773-2.206l-1.068-3.38l-27.287-86.288
		L113.927,59.388L113.927,59.388z M103.982,126.373c0.213-1.711,0.44-3.53,0.669-5.377l1.737,4.128L103.982,126.373L103.982,126.373
		z"/>
</g>
    <g>
	<polygon fill="#FDB913" points="142.359,91.745 125.495,75.328 153.559,60.776 178.09,92.426 198.329,43.558 223.695,52.851
		215.365,139.671 193.958,146.537 196.671,101.919 182.518,123.099 163.468,111.307 164.714,155.312 142.041,166.238 	"/>
        <path d="M199.764,46.827l21.178,7.758l-7.979,83.151l-16.205,5.197l3.063-50.363L181.758,119.6l-21-13l1.334,47.116l-17.457,8.413
		l0.306-71.467l-15.091-14.69l22.989-11.92l25.935,33.459L199.764,46.827 M196.895,40.289l-1.891,4.566l-17.596,42.485
		L156.91,60.896l-2.631-3.394l-3.813,1.977l-22.989,11.92l-6.337,3.286l5.115,4.979l13.524,13.164l-0.297,69.279l-0.035,8.241
		l7.424-3.578l17.457-8.413l3.008-1.449l-0.095-3.337l-1.063-37.556l12.867,7.966l4.23,2.619l2.765-4.137l7.48-11.194l-1.906,31.353
		l-0.457,7.519l7.173-2.3l16.205-5.197l3.231-1.037l0.323-3.377l7.979-83.151l0.381-3.961l-3.736-1.369l-21.178-7.758
		L196.895,40.289L196.895,40.289z"/>
</g>
    <polygon fill="#FDB913" stroke="#000000" stroke-width="5.1519" stroke-miterlimit="10" points="229.027,103.913 243.576,104.549
	255.91,46.827 230.141,48.677 "/>
    <g>
	<path fill="#FDB913" d="M238.336,134.33c-6.202,0-11.408-4.851-11.854-11.042c-0.47-6.542,4.471-12.246,11.013-12.716
		c0.289-0.021,0.576-0.031,0.861-0.031c6.203,0,11.409,4.851,11.854,11.042c0.228,3.169-0.792,6.236-2.871,8.638
		c-2.08,2.402-4.972,3.85-8.141,4.077C238.909,134.319,238.621,134.33,238.336,134.33z"/>
        <path d="M238.356,113.117c4.843,0,8.933,3.746,9.284,8.651c0.369,5.133-3.492,9.593-8.627,9.961
		c-0.228,0.017-0.454,0.024-0.678,0.024c-4.844,0-8.932-3.745-9.284-8.65c-0.368-5.132,3.493-9.593,8.628-9.962
		C237.906,113.125,238.133,113.117,238.356,113.117 M238.357,107.965L238.357,107.965c-0.348,0-0.7,0.013-1.047,0.038
		c-7.958,0.571-13.969,7.511-13.397,15.469c0.542,7.534,6.877,13.434,14.423,13.434c0.348,0,0.7-0.013,1.047-0.038
		c3.855-0.276,7.373-2.038,9.903-4.96c2.529-2.922,3.771-6.654,3.493-10.509C252.239,113.867,245.904,107.965,238.357,107.965
		L238.357,107.965z"/>
</g>
</svg>