<?xml version="1.0" encoding="utf-8"?>
<!-- Generator: Adobe Illustrator 16.0.0, SVG Export Plug-In . SVG Version: 6.00 Build 0)  -->
<!DOCTYPE svg PUBLIC "-//W3C//DTD SVG 1.1//EN" "http://www.w3.org/Graphics/SVG/1.1/DTD/svg11.dtd">
<svg version="1.1" id="Layer_1" xmlns="http://www.w3.org/2000/svg" xmlns:xlink="http://www.w3.org/1999/xlink" x="0px" y="0px"
	 width="240.4px" height="212.811px" viewBox="0 0 240.4 212.811" enable-background="new 0 0 240.4 212.811" xml:space="preserve">
<path fill="#3D8732" d="M168.602,210.404c-36.813,2.432-71.23,5.141-101.44-3.51c-29.75-7.439-55.359-27.35-64.239-45.479
    c-8.88-16.24,2.6-26.561,32.81-36.15c29.75-8.801,78.133-15.926,132.87-10.131C271.696,126.049,256.678,204.586,168.602,210.404z"/>
	<g>
    <g>
        <g>
            <path fill="#29368C" d="M122.062,88.035l-7.49,116.551l-20.56-22.861l-14.26-15.85l-21.58-24l28.979-59.119
                c0.67,1.279,1.45,2.51,2.37,3.639c2.11,2.591,4.76,4.57,7.521,6.351c3.34,2.17,6.439,2.81,10.38,2.81
                c1.93-0.01,3.109,0,4.87-0.75c1.89-0.819,2.89-1.81,4.479-3.049c1.41-1.091,2.92-1.91,4.3-2.99
                C121.371,88.525,121.701,88.285,122.062,88.035z"/>
			<path fill="#00AEEF" d="M210.689,128.447l-12.62,9.99l-24.7,19.568l-17.19,13.611L139.3,184.996l-24.73,19.59l7.49-116.549
                c1.51-1.08,3.34-2.18,4.859-2.9c3.15-1.5,7.271-2.881,10.73-2.25c1.811,0.33,3.02,0.881,4.51,1.891c1.49,1.02,1.9,1.76,2.98,3.18
                c3.189,4.17,7.47,7.799,12.359,9.48c1.9,0.66,3.87,1.01,5.91,1.02c4.25-0.01,8.02-1.65,11.32-4.33
                c2.99-2.42,6.189-4.98,8.66-7.939L210.689,128.447z"/>
			<path fill="#FFFFFF" d="M183.394,86.191c-2.473,2.955-5.67,5.514-8.664,7.936c-3.301,2.676-7.072,4.322-11.316,4.33
                c-2.047-0.01-4.018-0.361-5.912-1.018c-4.896-1.68-9.174-5.309-12.359-9.482c-1.084-1.422-1.492-2.158-2.98-3.184
                c-1.49-1.004-2.697-1.561-4.516-1.887c-3.458-0.629-7.573,0.752-10.723,2.246c-1.523,0.727-3.352,1.822-4.861,2.904
                c-0.355,0.244-0.686,0.486-0.99,0.727c-1.384,1.084-2.895,1.9-4.303,2.996c-1.587,1.236-2.589,2.229-4.481,3.047
                c-1.753,0.752-2.935,0.742-4.866,0.746c-3.939,0.008-7.042-0.635-10.377-2.803c-2.761-1.785-5.408-3.762-7.523-6.352
                c-0.916-1.129-1.694-2.359-2.371-3.643L127.712,0L183.394,86.191z"/>
        </g>
    </g>
		<path fill="#0D0E0C" d="M88.236,162.572c-0.35,4.32-1.26,8.271-2.51,11.461l-14.26-15.85c1.409-9.602,5.56-16.701,9.84-16.352
        C86.026,142.213,89.137,151.502,88.236,162.572z"/>
</g>
</svg>