<?xml version="1.0" encoding="utf-8"?>
<!-- Generator: Adobe Illustrator 16.0.0, SVG Export Plug-In . SVG Version: 6.00 Build 0)  -->
<!DOCTYPE svg PUBLIC "-//W3C//DTD SVG 1.1//EN" "http://www.w3.org/Graphics/SVG/1.1/DTD/svg11.dtd">
<svg version="1.1" xmlns="http://www.w3.org/2000/svg" xmlns:xlink="http://www.w3.org/1999/xlink" x="0px" y="0px"
	 width="273.47px" height="213.37px" viewBox="0 0 273.47 213.37" enable-background="new 0 0 273.47 213.37" xml:space="preserve">
<g id="triangle-group">
</g>
<g id="mound">
</g>
<g id="windmil">
</g>
<g id="square">
</g>
<g id="triangle">
	<path id="grass_6_" fill="#3D8732" d="M273.47,129.15v57.92c-1.14,0.36-2.28,0.73-3.43,1.1c-30.21,8.71-64.57,21.84-101.44,23.21
		c-36.87,1.33-71.23,5.14-101.44-3.51c-29.75-7.44-55.36-27.35-64.24-45.48c-8.88-16.24,2.6-26.56,32.81-36.15
		c29.75-8.8,78.24-16.86,132.87-10.13C208.46,121,245.04,124.42,273.47,129.15z"/>
	<g id="triangle_4_">
		<g>
			<g>
				<path fill="#29368C" d="M132.15,88.04l-7.49,116.55l-20.56-22.86l-14.26-15.85l-21.58-24l28.98-59.12
					c0.67,1.28,1.45,2.51,2.37,3.64c2.11,2.59,4.76,4.57,7.52,6.35c3.34,2.17,6.44,2.81,10.38,2.81c1.93-0.01,3.11,0,4.87-0.75
					c1.89-0.82,2.89-1.81,4.48-3.05c1.41-1.09,2.92-1.91,4.3-2.99C131.46,88.53,131.79,88.29,132.15,88.04z"/>
				<path fill="#00AEEF" d="M220.78,128.45l-12.62,9.99l-24.7,19.57l-17.19,13.61L149.39,185l-24.73,19.59l7.49-116.55
					c1.51-1.08,3.34-2.18,4.86-2.9c3.15-1.5,7.27-2.88,10.73-2.25c1.81,0.33,3.02,0.88,4.51,1.89c1.49,1.02,1.9,1.76,2.98,3.18
					c3.19,4.17,7.47,7.8,12.36,9.48c1.9,0.66,3.87,1.01,5.91,1.02c4.25-0.01,8.02-1.65,11.32-4.33c2.99-2.42,6.19-4.98,8.66-7.94
					L220.78,128.45z"/>
				<path fill="#FFFFFF" d="M193.48,86.19c-2.47,2.96-5.67,5.51-8.66,7.94c-3.3,2.68-7.07,4.32-11.32,4.33
					c-2.05-0.01-4.02-0.36-5.91-1.02c-4.9-1.68-9.17-5.31-12.36-9.48c-1.08-1.42-1.49-2.16-2.98-3.18c-1.49-1-2.7-1.56-4.52-1.89
					c-3.46-0.63-7.57,0.75-10.72,2.25c-1.52,0.73-3.35,1.82-4.86,2.9c-0.36,0.24-0.69,0.49-0.99,0.73c-1.38,1.08-2.89,1.9-4.3,3
					c-1.59,1.24-2.59,2.23-4.48,3.05c-1.75,0.75-2.94,0.74-4.87,0.75c-3.94,0.01-7.04-0.63-10.38-2.8
					c-2.76-1.79-5.41-3.76-7.52-6.35c-0.92-1.13-1.69-2.36-2.37-3.64L137.8,0L193.48,86.19z"/>
			</g>
		</g>
		<path fill="#0D0E0C" d="M98.32,162.57c-0.35,4.32-1.26,8.27-2.51,11.46l-14.26-15.85c1.41-9.6,5.56-16.7,9.84-16.35
			C96.11,142.21,99.22,151.5,98.32,162.57z"/>
	</g>
</g>
<g id="trump3">
</g>
<g id="trump2">
</g>
<g id="trump1">
</g>
</svg>
