<?xml version="1.0" encoding="utf-8"?>
<!-- Generator: Adobe Illustrator 16.0.0, SVG Export Plug-In . SVG Version: 6.00 Build 0)  -->
<!DOCTYPE svg PUBLIC "-//W3C//DTD SVG 1.1//EN" "http://www.w3.org/Graphics/SVG/1.1/DTD/svg11.dtd">
<svg version="1.1" id="Layer_1" xmlns="http://www.w3.org/2000/svg" xmlns:xlink="http://www.w3.org/1999/xlink" x="0px" y="0px"
     width="111.671px" height="67.252px" viewBox="-432.698 42.081 111.671 67.252"
     enable-background="new -432.698 42.081 111.671 67.252" xml:space="preserve">
<path fill="#FFFFFF" d="M-397.882,60.706c-5.275-9.065,5.899-17.628,14.019-18.527c9.654-1.069,12.14,6.854,16.811,13.689
    c4.668-5.971,15.077-16.99,22.144-9.175c4.607,5.096,4.316,15.89,4.489,22.292c0.032,1.172,23.966-1.992,18.613,13.696
    c-2.003,5.871-13.303,11.574-19.355,9.133c-0.678,17.762-41.413,25.57-47.803,6.258c-9.199,4.811-22.304,11.27-31.876,3.643
    c-3.325-2.65-5.166-5.809-4.581-9.971c0.333-2.357,2.271-4.857,3.093-7.027c-1.922-0.863-4.305-1.965-5.816-3.555
    c-3.264-3.432-5.815-9.807-3.885-14.431c4.669-11.172,24.419-18.016,34.101-8.833c0.545,0.517,1.135,1.223,1.931,1.313"/>
</svg>