<?xml version="1.0" encoding="utf-8"?>
<!-- Generator: Adobe Illustrator 16.0.0, SVG Export Plug-In . SVG Version: 6.00 Build 0)  -->
<!DOCTYPE svg PUBLIC "-//W3C//DTD SVG 1.1//EN" "http://www.w3.org/Graphics/SVG/1.1/DTD/svg11.dtd">
<svg version="1.1" id="Layer_1" xmlns="http://www.w3.org/2000/svg" xmlns:xlink="http://www.w3.org/1999/xlink" x="0px" y="0px"
	 width="732.42px" height="67.57px" viewBox="-309.32 209.315 732.42 67.57" enable-background="new -309.32 209.315 732.42 67.57"
	 xml:space="preserve">
<path fill="#629951" d="M-57.51,229.605c-30.43,11.71-56.15,27.96-74.91,47.28h-176.9c40.79-33.86,104.68-55.65,176.5-55.65
	C-106.39,221.235-81.04,224.185-57.51,229.605z"/>
<path fill="#629951" d="M423.101,276.885H246.43c-20.619-21.24-49.659-38.761-84.13-50.63c24.65-6.021,51.391-9.32,79.32-9.32
	C316.43,216.935,382.64,240.584,423.101,276.885z"/>
<path fill="#8BC53F" d="M246.43,276.885h-378.85c18.76-19.32,44.48-35.57,74.91-47.28c33.47-12.88,72.65-20.29,114.52-20.29
	c38.08,0,73.931,6.13,105.29,16.94C196.771,238.125,225.811,255.645,246.43,276.885z"/>
</svg>
