<?xml version="1.0" encoding="utf-8"?>
<!-- Generator: Adobe Illustrator 16.0.0, SVG Export Plug-In . SVG Version: 6.00 Build 0)  -->
<!DOCTYPE svg PUBLIC "-//W3C//DTD SVG 1.1//EN" "http://www.w3.org/Graphics/SVG/1.1/DTD/svg11.dtd">
<svg version="1.1" xmlns="http://www.w3.org/2000/svg" xmlns:xlink="http://www.w3.org/1999/xlink" x="0px" y="0px"
	 width="193.89px" height="159.09px" viewBox="0 0 193.89 159.09" enable-background="new 0 0 193.89 159.09" xml:space="preserve">
<g id="triangle-group">
</g>
<g id="mound">
	<path id="grass_2_" fill="#3D8732" d="M192.21,81.87c-2.5,8.07-7.53,11.99-13.98,17.39c-6.47,5.15-14.36,11.77-22.96,19.38
		c-17.37,15.51-37.12,33.48-58.33,37.2c-21.2,3.66-40.96,6.73-58.31-5.52c-8.61-6.11-16.5-16.3-22.97-29.89
		C9.21,107.11,4.18,90.38,1.68,77.53c-5.11-27.49,1.5-40.95,18.87-57.68C37.65,4.2,65.53-5.67,96.95,3.56
		c31.41,9.16,59.29,18.5,76.4,30.42C190.72,44.8,197.32,67.24,192.21,81.87z"/>
	<g id="mound_1_">
		<path fill="#EE8925" d="M152.57,86.05c0,4.61-0.44,9.12-1.28,13.47c-3.17,2.76-6.59,5.33-10.21,7.67
			c-6.14,3.97-12.88,7.29-20.09,9.85c-6.09,2.16-12.5,3.78-19.17,4.78c-5.23,0.8-10.61,1.21-16.11,1.21c-1.56,0-3.1-0.03-4.64-0.1
			c-22.77-0.96-43.35-9-58.79-21.59c-1.09-4.91-1.66-10.03-1.66-15.29c0-37.75,29.54-68.34,65.98-68.34
			C123.03,17.71,152.57,48.3,152.57,86.05z"/>
		<path fill="#0D0E0C" d="M141.08,107.19c-6.14,3.97-12.88,7.29-20.09,9.85c-0.29-0.01-0.58-0.02-0.87-0.03
			c-0.45-1.9-0.69-3.96-0.69-6.11c0-9.64,4.9-17.46,10.95-17.46C135.63,93.44,140.02,99.33,141.08,107.19z"/>
	</g>
</g>
<g id="windmil">
</g>
<g id="square">
</g>
<g id="triangle">
</g>
<g id="trump3">
</g>
<g id="trump2">
</g>
<g id="trump1">
</g>
</svg>
