<?xml version="1.0" encoding="utf-8"?>
<!-- Generator: Adobe Illustrator 16.0.0, SVG Export Plug-In . SVG Version: 6.00 Build 0)  -->
<!DOCTYPE svg PUBLIC "-//W3C//DTD SVG 1.1//EN" "http://www.w3.org/Graphics/SVG/1.1/DTD/svg11.dtd">
<svg version="1.1" xmlns="http://www.w3.org/2000/svg" xmlns:xlink="http://www.w3.org/1999/xlink" x="0px" y="0px"
	 width="202.83px" height="187.94px" viewBox="0 0 202.83 187.94" enable-background="new 0 0 202.83 187.94" xml:space="preserve">
<g id="triangle-group">
</g>
<g id="mound">
</g>
<g id="windmil">
</g>
<g id="square">
	<path id="grass_4_" fill="#3D8732" d="M1.83,109.65c5.31,15.36,19.95,30.66,36.84,44.83c17.2,13.93,36.65,26.73,58.58,31.58
		c21.85,4.85,43.48,0.3,62.86-13.9c19.07-13.96,35.88-37.58,41.12-65.25c5.37-27.54-3.04-52.52-22.39-66.37
		C159.72,26.31,129.65,23.2,97.25,30.5c-32.47,7.31-60.36,21.54-77.3,35.44C2.77,80.21-3.47,94.16,1.83,109.65z"/>
	<g id="square_2_">
		<g>
			<g>
				<polygon fill="#FBED07" points="42.22,118.47 61.71,137.12 81.04,145.78 113.12,160.17 113.13,158.94 113.79,42.38 113.9,23.76 
					112.34,23.64 64.69,20.11 				"/>
				<polygon fill="#ED1C24" points="112.21,159.34 113.11,158.95 137.01,148.71 156.89,136.54 185.39,117.08 183.14,106.8 
					181.48,101.77 177.16,88.76 168.47,62.56 164.54,50.67 161.7,42.12 158.51,32.47 154.63,20.77 112.33,23.48 112.33,28.71 
					112.31,37.11 112.31,48.01 112.3,58.15 112.3,68.97 112.28,72.71 112.28,81.13 				"/>
				<polygon fill="#29368C" points="154.51,22.82 112.41,49.67 64.69,20.11 110,0 154.63,20.77 				"/>
			</g>
		</g>
		<path fill="#0D0E0C" d="M61.71,140.65l19.32,8.66c0.52-2.3,0.81-4.84,0.81-7.5c0-10.56-4.52-19.11-10.08-19.11
			C66.4,122.69,62.02,130.63,61.71,140.65z"/>
	</g>
</g>
<g id="triangle">
</g>
<g id="trump3">
</g>
<g id="trump2">
</g>
<g id="trump1">
</g>
</svg>
