<?xml version="1.0" encoding="utf-8"?>
<!-- Generator: Adobe Illustrator 16.0.0, SVG Export Plug-In . SVG Version: 6.00 Build 0)  -->
<!DOCTYPE svg PUBLIC "-//W3C//DTD SVG 1.1//EN" "http://www.w3.org/Graphics/SVG/1.1/DTD/svg11.dtd">
<svg version="1.1" xmlns="http://www.w3.org/2000/svg" xmlns:xlink="http://www.w3.org/1999/xlink" x="0px" y="0px"
	 width="202.83px" height="234.17px" viewBox="0 0 202.83 234.17" enable-background="new 0 0 202.83 234.17" xml:space="preserve">
<g id="triangle-group">
	<path id="grass" fill="#3D8732" d="M201.23,153.15c-5.24,27.68-22.05,51.29-41.12,65.25c-19.37,14.2-41.01,18.74-62.86,13.9
		c-21.93-4.85-41.38-17.65-58.58-31.58c-16.89-14.17-31.53-29.47-36.84-44.83c-5.3-15.49,0.93-29.44,18.11-43.71
		c16.94-13.9,44.83-28.13,77.31-35.44c32.4-7.3,62.47-4.19,81.59,10.05C198.2,100.63,206.61,125.61,201.23,153.15z"/>
	<g id="square_1_">
		<g>
			<polygon fill="#EC008C" points="187.66,161.25 160.06,174.65 137.34,185.68 99.62,204 99.6,202.44 98.83,53.97 98.71,30.26 
				100.54,30.11 156.56,25.61 			"/>
			<polygon fill="#ED1C24" points="100.68,202.95 99.63,202.45 71.54,189.41 43.25,175.67 14.66,149.12 17.3,136.03 19.26,129.62 
				24.33,113.06 34.54,79.69 39.17,64.53 42.51,53.65 46.26,41.35 50.82,26.45 100.55,29.91 100.55,36.57 100.57,47.26 
				100.57,61.15 100.59,74.06 100.59,87.84 100.61,92.61 100.61,103.33 			"/>
			<polygon fill="#29368C" points="50.96,29.07 103.33,56.32 156.56,25.62 103.29,0 50.82,26.45 			"/>
		</g>
		<path fill="#0D0E0C" d="M160.06,174.65l-22.72,11.03c-0.61-2.93-0.95-6.16-0.95-9.56c0-13.45,5.32-24.34,11.85-24.34
			C154.54,151.78,159.7,161.89,160.06,174.65z"/>
	</g>
</g>
<g id="mound">
</g>
<g id="windmil">
</g>
<g id="square">
</g>
<g id="triangle">
</g>
<g id="trump3">
</g>
<g id="trump2">
</g>
<g id="trump1">
</g>
</svg>
