<?xml version="1.0" encoding="utf-8"?>
<!-- Generator: Adobe Illustrator 16.0.0, SVG Export Plug-In . SVG Version: 6.00 Build 0)  -->
<!DOCTYPE svg PUBLIC "-//W3C//DTD SVG 1.1//EN" "http://www.w3.org/Graphics/SVG/1.1/DTD/svg11.dtd">
<svg version="1.1" xmlns="http://www.w3.org/2000/svg" xmlns:xlink="http://www.w3.org/1999/xlink" x="0px" y="0px"
	 width="329.05px" height="309.12px" viewBox="0 0 329.05 309.12" enable-background="new 0 0 329.05 309.12" xml:space="preserve">
<g id="triangle-group">
	<path id="grass_1_" fill="#3D8732" d="M163.53,300.81c-36.27-12.53-68.7-29.92-99.13-51.75C34.86,227.2,7.32,200.91,1.45,170.08
		c-6.88-30.51,11.45-55.28,40.36-69.26c29.08-14.49,68.75-18.19,108.48-18.36c40.16,1.06,78.07,3.81,112.21,21.09
		c33.27,16.64,62.75,47.81,66.03,90.98c4.6,42.54-21.59,81.12-54.85,99.43C239.94,313.34,199.13,312.44,163.53,300.81z"/>
	<g id="triangle_3_">
		<path fill="#ED1C24" d="M154.53,69.26l-6.07,91.69l-44.28-49.43l22.89-46.47c0.53,1.01,1.14,1.98,1.86,2.87
			c1.66,2.04,3.74,3.6,5.91,5.01c2.62,1.71,5.06,2.22,8.16,2.22c1.52,0,2.45,0.01,3.83-0.58c1.49-0.64,2.28-1.42,3.53-2.39
			c1.11-0.86,2.3-1.5,3.39-2.35C153.99,69.64,154.25,69.45,154.53,69.26z"/>
		<path fill="#9E1F63" d="M224.2,101.19l-75.74,59.76l6.07-91.69c1.19-0.85,2.63-1.71,3.83-2.28c2.48-1.17,5.72-2.25,8.44-1.75
			c1.43,0.26,2.38,0.7,3.55,1.49c1.17,0.81,1.49,1.39,2.34,2.51c2.5,3.29,5.86,6.15,9.71,7.48c1.49,0.52,3.04,0.8,4.65,0.81
			c3.34,0,6.31-1.29,8.91-3.39c2.36-1.9,4.88-3.91,6.83-6.23L224.2,101.19z"/>
		<path fill="#FFFFFF" d="M202.79,67.9c-1.95,2.32-4.47,4.33-6.83,6.23c-2.6,2.1-5.57,3.39-8.91,3.39
			c-1.61-0.01-3.16-0.29-4.65-0.81c-3.85-1.33-7.21-4.19-9.71-7.48c-0.85-1.12-1.17-1.7-2.34-2.51c-1.17-0.79-2.12-1.23-3.55-1.49
			c-2.72-0.5-5.96,0.58-8.44,1.75c-1.2,0.57-2.64,1.43-3.83,2.28c-0.28,0.19-0.54,0.38-0.78,0.57c-1.09,0.85-2.28,1.49-3.39,2.35
			c-1.25,0.97-2.04,1.75-3.53,2.39c-1.38,0.59-2.31,0.58-3.83,0.58c-3.1,0-5.54-0.51-8.16-2.22c-2.17-1.41-4.25-2.97-5.91-5.01
			c-0.72-0.89-1.33-1.86-1.86-2.87L159.11,0L202.79,67.9z"/>
	</g>
	<g id="triangle_2_">
		<path fill="#FBED07" d="M88.57,149.21L82.5,240.9l-44.28-49.43L61.11,145c0.53,1.01,1.14,1.98,1.86,2.87
			c1.66,2.04,3.74,3.6,5.91,5.01c2.62,1.71,5.06,2.22,8.16,2.22c1.52,0,2.45,0.01,3.83-0.58c1.49-0.64,2.28-1.42,3.53-2.39
			c1.11-0.86,2.3-1.5,3.39-2.35C88.03,149.59,88.29,149.4,88.57,149.21z"/>
		<path fill="#F9A01B" d="M158.24,181.14L82.5,240.9l6.07-91.69c1.19-0.85,2.63-1.71,3.83-2.28c2.48-1.17,5.72-2.25,8.44-1.75
			c1.43,0.26,2.38,0.7,3.55,1.49c1.17,0.81,1.49,1.39,2.34,2.51c2.5,3.29,5.86,6.15,9.71,7.48c1.49,0.52,3.04,0.8,4.65,0.81
			c3.34,0,6.31-1.29,8.91-3.39c2.36-1.9,4.88-3.91,6.83-6.23L158.24,181.14z"/>
		<path fill="#FFFFFF" d="M136.83,147.85c-1.95,2.32-4.47,4.33-6.83,6.23c-2.6,2.1-5.57,3.39-8.91,3.39
			c-1.61-0.01-3.16-0.29-4.65-0.81c-3.85-1.33-7.21-4.19-9.71-7.48c-0.85-1.12-1.17-1.7-2.34-2.51c-1.17-0.79-2.12-1.23-3.55-1.49
			c-2.72-0.5-5.96,0.58-8.44,1.75c-1.2,0.57-2.64,1.43-3.83,2.28c-0.28,0.19-0.54,0.38-0.78,0.57c-1.09,0.85-2.28,1.49-3.39,2.35
			c-1.25,0.97-2.04,1.75-3.53,2.39c-1.38,0.59-2.31,0.58-3.83,0.58c-3.1,0-5.54-0.51-8.16-2.22c-2.17-1.41-4.25-2.97-5.91-5.01
			c-0.72-0.89-1.33-1.86-1.86-2.87l32.04-65.05L136.83,147.85z"/>
	</g>
	<g id="triangle_1_">
		<g>
			<path fill="#29368C" d="M173.36,179.78l-7.49,116.55l-56.4-62.71l28.98-59.12c0.68,1.28,1.45,2.51,2.37,3.64
				c2.11,2.59,4.76,4.57,7.52,6.35c3.33,2.17,6.44,2.81,10.38,2.8c1.93,0,3.11,0.01,4.87-0.75c1.89-0.82,2.89-1.81,4.48-3.05
				c1.41-1.1,2.92-1.91,4.3-3C172.68,180.27,173.01,180.03,173.36,179.78z"/>
			<path fill="#00AEEF" d="M261.99,220.19l-12.62,9.99l-24.7,19.57l-17.19,13.61l-16.88,13.38l-24.73,19.59l7.49-116.55
				c1.51-1.08,3.34-2.18,4.86-2.9c3.15-1.5,7.27-2.88,10.73-2.25c1.81,0.33,3.02,0.88,4.51,1.89c1.49,1.02,1.9,1.76,2.98,3.18
				c3.19,4.17,7.47,7.8,12.36,9.48c1.9,0.66,3.87,1.01,5.91,1.02c4.25-0.01,8.02-1.65,11.32-4.33c2.99-2.42,6.19-4.98,8.66-7.94
				L261.99,220.19z"/>
			<path fill="#FFFFFF" d="M234.7,177.94c-2.47,2.96-5.67,5.51-8.66,7.94c-3.3,2.68-7.07,4.32-11.32,4.33
				c-2.05-0.01-4.02-0.36-5.91-1.02c-4.9-1.68-9.17-5.31-12.36-9.48c-1.08-1.42-1.49-2.16-2.98-3.18c-1.49-1-2.7-1.56-4.51-1.89
				c-3.46-0.63-7.57,0.75-10.72,2.25c-1.52,0.73-3.35,1.82-4.86,2.9c-0.35,0.24-0.69,0.49-0.99,0.73c-1.38,1.08-2.89,1.9-4.3,3
				c-1.59,1.24-2.59,2.23-4.48,3.05c-1.75,0.75-2.93,0.74-4.87,0.75c-3.94,0.01-7.04-0.63-10.38-2.8c-2.76-1.79-5.41-3.76-7.52-6.35
				c-0.92-1.13-1.69-2.36-2.37-3.64l40.56-82.76L234.7,177.94z"/>
		</g>
		<path fill="#0D0E0C" d="M224.67,249.75l-17.19,13.61c-0.67-3.12-1.05-6.67-1.05-10.44c0-12.42,4.11-22.48,9.17-22.48
			C220.23,230.44,224.05,238.83,224.67,249.75z"/>
	</g>
</g>
<g id="mound">
</g>
<g id="windmil">
</g>
<g id="square">
</g>
<g id="triangle">
</g>
<g id="trump3">
</g>
<g id="trump2">
</g>
<g id="trump1">
</g>
</svg>
