<?xml version="1.0" encoding="utf-8"?>
<!-- Generator: Adobe Illustrator 16.0.0, SVG Export Plug-In . SVG Version: 6.00 Build 0)  -->
<!DOCTYPE svg PUBLIC "-//W3C//DTD SVG 1.1//EN" "http://www.w3.org/Graphics/SVG/1.1/DTD/svg11.dtd">
<svg version="1.1" xmlns="http://www.w3.org/2000/svg" xmlns:xlink="http://www.w3.org/1999/xlink" x="0px" y="0px"
	 width="129.48px" height="115.49px" viewBox="0 0 129.48 115.49" enable-background="new 0 0 129.48 115.49" xml:space="preserve">
<g id="triangle-group">
</g>
<g id="mound">
</g>
<g id="windmil">
</g>
<g id="square">
</g>
<g id="triangle">
</g>
<g id="trump3">
</g>
<g id="trump2">
</g>
<g id="trump1">
	<g>
		<path fill="#FCD404" d="M100.39,56.88c-4.66,5.46-2.6,6.33-3.11,6.16c-2.23-0.75-1.62-2.64-1.62-2.64s-2.7,1.56-1.66,3.64
			c0.59,1.18-3.11-2.65-3.11-2.65S102.22,54.74,100.39,56.88z"/>
		<path fill="#FCD404" d="M68.5,19.65c-6.13,3.75-6.66,1.58-6.57,2.11c0.39,2.32,2.36,2.02,2.36,2.02s-1.96,2.42-3.86,1.07
			c-1.07-0.76,2.13,3.49,2.13,3.49S70.9,18.19,68.5,19.65z"/>
		<path fill="#E87524" d="M108.48,52.38c0,0-3.24,7.33-11.96,6.54L108.48,52.38z"/>
		<path fill="#E87524" d="M74.47,12.55c0,0-7.75,2.05-8.34,10.79L74.47,12.55z"/>
		<path fill="#FFFFFF" stroke="#FCD404" stroke-miterlimit="10" d="M69.48,90.06c1.46,6.7-1.21,8.56-4.87,11.68
			c-2.2,1.88-6.33,3.56-10.17,3.6c-4.91,0.05-8.71-5.3-15.11-6.14c-6.08-0.79-10.99-5.43-15.32-10.5
			c-4.4-5.15-8.19-11.45-8.13-16.88c0.05-4.15-4.49-11.34-3.66-16.18c0.63-3.72,2.91-7.48,5.07-9.32c3.78-3.23,5.19-5.79,11.85-3.02
			L69.48,90.06z"/>
		<path fill="#EE8925" d="M69.03,97.03c0,0-18.5-1.32-32.94-18.24C21.85,62.09,23.11,42.28,23.11,42.28s19.5-31.11,50.07,4.84
			C103.69,83.01,69.03,97.03,69.03,97.03z"/>
		<path fill="#EE8925" d="M81.28,80.09c0.53,2.23,1.77,4.14,2.84,6.14c0.54,1,1.22,1.85,1.93,2.75c0.29,0.36,1.38,1.27,1.42,1.8
			c0.1,1.48-1.46,2.77-1.1,4.09c0.38,1.41,1.48-1.27,2.4-2.32c-0.15,0.8-0.24,1.7-0.33,2.52c-0.07,0.6,0.1,1.12,0.13,1.71
			c0.03,0.55,1.18,0.55,1.26-0.03c0.29-2.24,0.31-2.25,0.47-3.1c0.63,0.78,0.08,4.16,1.25,4c1.17-0.16,0.19-3.19,0.59-4.24
			c0.36,0.96,0.7,3.02,1.62,3.2c0.65,0.13,0.71-0.2,0.74-0.45c0.03-0.19-0.51-1.95-0.56-2.11c-0.1-0.33-0.98-3.47,0.27-3.65
			c1.09-0.15,3.18,0.22,2.84-1.14c-0.22-0.89-3.69,0.2-3.32-1.52c0.44-2.03,1.17-3.74,1.24-5.77c0.14-4.18-0.82-7.9-1.41-11.98
			c-0.45-3.15-1.96-6.71-3.43-9.52c-0.54-1.04-2.74-4.83-3.76-4.35c-1.59,0.75-3.63,3.13-4.33,4.69c-0.89,1.98-0.98,4.32-1.19,6.45
			c-0.16,1.6-0.79,2.79-1.36,4.3c-0.27,0.71-0.97,1.42-0.61,2.2c0.48,1.04,0.95,1.78,1.23,2.93C80.4,77.85,80.89,78.94,81.28,80.09
			C81.49,80.97,81.28,80.09,81.28,80.09C81.82,82.33,81.28,80.09,81.28,80.09z"/>
		<g>
			<path fill="#010101" d="M33.28,26.81l2.2-3.32c0.33-0.5-0.1-1.37-0.96-1.94l-4.63-3.06l-1.12-0.74
				c-0.86-0.57-1.82-0.63-2.16-0.13l-2.2,3.33c-0.33,0.5,0.1,1.37,0.96,1.94l0.27,0.18l4.74,3.14l0.73,0.49
				c0.36,0.24,0.73,0.38,1.07,0.44C32.68,27.21,33.09,27.11,33.28,26.81z"/>
			<path fill="#4398D1" d="M31.9,25.27c-0.24,0.36-0.94,0.31-1.57-0.1l-4.19-2.78c-0.63-0.42-0.95-1.04-0.71-1.4l1.58-2.39
				c0.24-0.36,0.94-0.31,1.57,0.1l4.19,2.78c0.63,0.42,0.95,1.04,0.71,1.4L31.9,25.27z"/>
		</g>
		<path fill="#EE8925" d="M30.4,26.2c-0.1,0.06-0.19,0.12-0.29,0.19c-0.23,0.14-0.58,0.13-0.87,0.06c-0.43-0.1-0.42-0.59-0.42-0.87
			c-0.04-0.04-0.08-0.08-0.13-0.12c-0.17,0.07-0.47,0.18-0.71,0.02c-0.35-0.23-0.15-0.58-0.13-0.76c-0.01-0.01-0.03-0.01-0.04-0.02
			c-0.01-0.01-0.02-0.01-0.03-0.02c-0.21,0.1-0.68,0.39-0.85,0.28c-0.27-0.17-0.14-0.6-0.14-0.83c-0.04-0.02-0.09-0.04-0.13-0.06
			c-0.16,0.1-0.39,0.32-0.59,0.27c-0.46-0.11-0.59-0.48-0.51-0.94c-0.01-0.01-0.01-0.02-0.02-0.03c-0.08-0.32,0.31-0.56,0.57-0.7
			c0.26-0.14,0.46-0.35,0.79-0.3c0.18,0.03,0.27,0.08,0.34,0.24c0.05,0.1,0.02,0.32,0.02,0.39c0.15-0.01,0.33-0.1,0.49-0.11
			c0.21-0.01,0.25,0,0.39,0.16c0.1,0.11,0.21,0.18,0.21,0.34c0.01,0.15-0.12,0.28-0.09,0.41c0.18-0.04,0.3-0.17,0.46-0.17
			c0.28,0,0.42,0.12,0.57,0.4c0.12,0.21,0.11,0.39,0.07,0.63c0.14-0.09,0.46-0.2,0.63-0.16c0.21,0.06,0.33,0.27,0.45,0.45
			c0.19,0.28,0.21,0.89-0.01,1.17l-0.09,0.02L30.4,26.2z M62.18,37.01c0.79-1.07,1.7-2.15,2.72-3c1.13-0.94,1.75-1.94,1.69-3.43
			c-0.02-0.56-0.41-0.58-0.93-0.72c-0.47-0.12-0.9-0.26-1.34-0.45l-1.46-0.88c-0.3-0.34-0.63-0.57-0.92-0.91
			c-0.31-0.38-0.58-0.86-0.98-1.15c-13.15-9.47-24.6-6.49-25.35-6.37c-0.3,0.05-0.47,0.32-0.78,0.31c-0.52-0.02-1.66-0.9-1.96-1.13
			c-0.36-0.29-0.54-0.77-0.92-0.99c-0.31-0.18-0.61-0.29-0.94-0.44c-0.37-0.17-0.55-0.01-0.72,0.17c-0.06-0.01-0.12-0.01-0.17-0.01
			c-0.82,0.7,0.4,3.63,1.73,2.69c0.26-0.18,0.42-0.37,0.52-0.56l2.13,1.41c0.86,0.57,1.29,1.44,0.96,1.93l-2.2,3.33
			c-0.2,0.29-0.61,0.39-1.09,0.31c0.37,0.48,0.79,1.03,1.33,1.46c0.34,0.27,2.48,1.86,3.16,2.5c0.58,0.55,1.2,1.21,1.84,1.71
			c1.29,1.01,2.57,2.05,3.75,3.18c0.61,0.58,1.27,1.23,1.98,1.7c0.57,0.38,1.33,0.57,1.99,0.76c1.68,0.47,3.62,0.75,5.15,1.62
			c1,0.57,2.1,0.9,3.18,1.34c1.16,0.47,2.04-0.04,2.97-0.82c0.95-0.79,2.19-1.23,3.18-2C61.31,38.12,61.74,37.6,62.18,37.01z"/>
		<path fill="#EE8925" d="M84.81,65.07c-4.86,1.75-14.79-2.35-20.9-9.55c-6.61-7.81-7.36-17.34-5.5-21.37
			c2.21-4.8,8.26-12.93,14.31-20.49c7.57-9.45,26.06-8.18,26.75-7.37l20.41,23.9c0.69,0.81-0.99,16.17-10.26,21.73
			C100.71,57.26,90.52,63.01,84.81,65.07z"/>
		<path fill="none" stroke="#EE8925" stroke-width="0.8061" stroke-linecap="round" d="M84.81,65.07c-0.38,0.14-0.81,0.24-1.25,0.31
			c-5.17,0.77-14.02-3.23-19.64-9.86c-6.61-7.81-7.36-17.34-5.5-21.37c0.1-0.21,0.2-0.43,0.31-0.65"/>
		<path fill="none" stroke="#EE8925" stroke-width="0.8061" stroke-linecap="round" d="M64.59,37.53
			c-5.04,4.52,1.37,26.18,16.82,19.45"/>
		<path fill="none" stroke="#EE8925" stroke-width="0.4836" stroke-linecap="round" d="M75.99,37.23c0,0-10.73,4.81,0.83,13.39"/>
		<path fill="none" stroke="#EE8925" stroke-width="0.4836" stroke-linecap="round" d="M81.05,49.87c0,0,1.23-1.79,4.79-4.94"/>
		<path fill="none" stroke="#E87524" stroke-width="0.4836" stroke-linecap="round" stroke-linejoin="bevel" d="M80.78,31.93
			c0.81-0.69,4.38-4.19,7.47-0.44l2.91,3.41c3.55,4.15-0.22,8.03-1.03,8.72"/>
		
			<ellipse transform="matrix(0.4151 -0.9098 0.9098 0.4151 24.1203 87.5028)" fill="#EE8925" cx="80.11" cy="24.99" rx="4.56" ry="5.8"/>
		
			<ellipse transform="matrix(-0.9636 0.2672 -0.2672 -0.9636 202.1359 62.1684)" fill="#EE8925" cx="96.84" cy="44.84" rx="4.56" ry="5.8"/>
		<path fill="#ECAD5D" d="M89.69,26.8c-2.09,1.77-5.99-1.43-7.14-2.78c-1.15-1.34-0.79-3.75,0.94-5.23
			c1.73-1.47,3.43-2.31,4.58-0.96C89.22,19.17,91.49,25.28,89.69,26.8z"/>
		<path fill="#ECAD5D" d="M97.04,35.42c-2.07,1.78,0.48,6.14,1.63,7.49c1.15,1.35,3.58,1.36,5.31-0.11
			c1.72-1.47,2.82-3.02,1.67-4.37C104.5,37.08,98.83,33.88,97.04,35.42z"/>
		<path fill="none" stroke="#EE8925" stroke-width="0.4836" stroke-linecap="round" stroke-linejoin="round" d="M31.05,49.51
			c6.69,2.78,14.02,8.25,20.42,15.75C58.1,73.01,62.41,81.4,63.99,88.6"/>
		<path fill="#EE8925" d="M20.27,61.47c-1.42-4.51-5.46-7.26-9.03-6.14c-2.26,0.71-3.78,2.81-4.23,5.39
			c-0.51-0.08-1.02-0.03-1.5,0.16c-1.24,0.49-1.97,1.79-2.06,3.35c-0.82,0.33-1.26,0.97-1.93,1.58c-0.26,0.24-1.23,0.34-1.37,0.87
			c-0.07,0.26,0.41,0.65,0.54,0.49c-0.51,0.52-1.31,1.52,0.11,1.27c-0.92,0.51-1.04,1.88,0.29,1.24c-1.4,1.97,0.83,1.36,0.84,1.41
			c0.04,0.19-0.6,0.9,0.08,1.34c0.56,0.36,1.3-0.13,1.65-0.59c0.4-0.52-0.06-1.04,0.8-1.51c0.56-0.3,0.9-0.54,1.22-0.91
			c1.08,0.89,2.37,1.23,3.5,0.79c0.28-0.11,0.52-0.26,0.75-0.44c1.84,1.79,4.24,2.59,6.46,1.89C19.95,70.54,21.69,65.98,20.27,61.47
			z"/>
		<path fill="#EE8925" d="M50.12,96.43c4.23,2.11,6.31,6.53,4.64,9.88c-1.06,2.12-3.37,3.29-5.99,3.33
			c-0.01,0.52-0.13,1.02-0.39,1.46c-0.67,1.14-2.08,1.67-3.64,1.51c-0.45,0.76-1.16,1.09-1.86,1.65c-0.28,0.22-0.53,1.17-1.07,1.22
			c-0.27,0.03-0.58-0.51-0.39-0.61c-0.59,0.42-1.71,1.06-1.24-0.31c-0.65,0.83-2.02,0.74-1.17-0.48c-2.16,1.07-1.21-1.03-1.26-1.05
			c-0.18-0.07-0.99,0.45-1.31-0.28c-0.26-0.61,0.33-1.26,0.84-1.54c0.58-0.31,1.02,0.23,1.61-0.55c0.39-0.51,0.68-0.8,1.09-1.06
			c-0.71-1.2-0.85-2.54-0.23-3.58c0.15-0.26,0.34-0.48,0.56-0.67c-1.48-2.1-1.89-4.6-0.86-6.68C41.11,95.32,45.89,94.32,50.12,96.43
			z"/>
		<path fill="none" stroke="#EE8925" stroke-width="0.3224" d="M37.07,33.72c-8.9,12.58,12.3,31.34,20.61,24.14"/>
		<path fill="none" stroke="#EE8925" stroke-width="0.3224" d="M80.71,84.83C66.88,91.65,51.69,67.77,60.1,60.69"/>
		<path fill="none" stroke="#FBED07" stroke-width="0.4836" stroke-miterlimit="10" d="M56.11,58.28c-0.65-0.76-1.47-1.43-1.9-2.35
			c-0.55-1.2-1.31-1.76-2.27-2.56c-2.9-2.43-1.54,4.2-0.1,2.05c0.27-0.39,0.22-1.05,0.44-1.49c0.24-0.51,0.55-1.04,0.98-1.4
			c0.57-0.47,1.64-1.43,2.31-0.61c0.32,0.4-0.82,1.62-1.02,1.99c-0.61,1.12,0.19,2.05,0.71,3.03c0.54,1.04,1.15,1.81,2.13,0.74
			c0.36-0.4,0.33-0.69,0.37-1.18c0.05-0.54,0.38-0.99,0.67-1.43c0.48-0.74,1.23-1.22,1.8-0.18c0.58,1.05-0.62,1.83-1.07,2.63
			c-0.39,0.7-0.87,2.52-1.87,2.6c-0.63,0.05-0.85-0.07-1.42,0.36c-0.41,0.3-0.99,0.55-1.16,1.06c-0.37,1.09-0.29,2.22,0.14,3.28
			c0.21,0.5,0.46,1,0.75,1.46c0.14,0.23,0.71,0.93,0.65,1.24c-0.25-0.67,0.24-1.31,0.42-1.93c0.24-0.81,0.27-1.59,0.48-2.39
			c0.24-0.96,0.59-1.65,1.25-2.36c0.24-0.25,0.32-0.71,0.67-0.86c0.4,0.36,0.66,0.85,1.06,1.2c0.66-0.65-0.4-1.41-0.65-2.06
			c-0.33-0.84-1.21-1.97-2.15-2.12c-0.86-0.14-1.62,0.29-2.13,0.98c-0.68,0.93,0.67,1.76,1.45,1.77c-0.94-0.85-1.58-2.03-2.64-2.8
			c-0.97-0.7-2.7-0.59-3.18,0.67c-0.35,0.93,0.52,1.83,1,2.53c0.44,0.63,0.83,1.3,1.41,1.81c0.88,0.78,1.06-0.3,0.99-1.08
			c-0.07-0.76-0.14-1.51-0.26-2.26c-0.13-0.83,0.07-0.94,0.73-1.39c0.74-0.49,2.93-1.82,2.53-2.94c-0.33-0.91-1.42-1.89-2.42-1.89
			c-1.23,0-1.16,2.08-0.71,2.81c0.42,0.69,1.83,3.15,2.71,2.53c0.99-0.7,1.06-2.33,2.68-1.73c0.4,0.15,2.57,1.66,1.98,2.33
			c0.74,1.2,0.74,2.26-0.32,3.33c-1.12,1.14-2.25,0.24-2.79-0.98c-0.47-1.05-0.79-2.54,0.09-3.46c0.47-0.5,0.92-0.39,1.54-0.38
			c0.7,0.01,1.65-0.13,2.25-0.52c0.56-0.37,1.04-1.45,0.86-2.11c-0.3,0.1-1.26-1.71-1.51-2.03c-0.37-0.47-0.97-1.46-1.65-1.51
			c-0.75-0.06-1.09,1.57-1.28,2.08c-0.32,0.86-0.62,1.55-0.33,2.48c0.27,0.87,0.78,1.61,1.07,2.45c0.68,1.92,2.38,2.48,4.04,3.29
			c0.56,0.28,1.27,0.59,1.88,0.26c0.65-0.36,1.16-1.12,0.96-1.87c-0.17-0.66-0.65-1.49-1.05-2.04c-0.64-0.87-1.38-0.14-1.95,0.39
			c-0.47,0.44-1.27,1.18-1.36,1.85c-0.12,0.88,0.25,1.52,0.25,2.35c-0.02,1.87-1.59,3.3-3.01,4.2c-0.19-1.04,0.04-2.49-0.5-3.44
			c-0.54-0.94-0.98-2.11-1.68-2.95c-0.19-0.23-0.86-0.03-1.13,0.01c-0.55,0.07-0.81,0.56-0.83,1.07c-0.05,1.2,0.66,1.96,1.41,2.8
			c0.83,0.93,0.75,2.12,1.53,3.03c0.63,0.75,2,0.41,2.26-0.58c0.1-0.38-0.13-0.74-0.13-1.12c0-0.5,0.24-0.88,0.15-1.4
			c-0.17-0.97-0.18-1.71-0.74-2.37c-0.25-0.3-0.9-0.45-0.8,0.15c0.09,0.52,0.37,1,0.48,1.53c0.16,0.78,1.26-0.51,1.55-0.82
			c0.52-0.56,0.48-5.64,2.06-4.09c0.71,0.69,1.47,1.31,2.18,1.99c0.91,0.88,1.14,1.47,1.22,2.69c0.03,0.41,0.16,0.89-0.13,1.24
			c-0.36,0.42-0.84-0.55-1.26-0.73c-0.6-0.25-1.17-0.56-1.83-0.61c-0.56-0.04-1.08,0.44-1.55,0.4c0.16-0.48,0.85-1.07,1.19-1.43
			c0.26-0.28,0.53-0.56,0.85-0.77c0.26,0.23,0.46,0.52,0.63,0.82c0.64,1.17,1.69,2.32,1.78,3.63c0.09,1.23-1.01,2.39-1.88,3.13
			c-0.79,0.67-1.79-2.4-2.1-2.92c-0.34-0.58-0.3-1.3-0.51-1.92c-0.19-0.59-0.48-1.09-0.66-1.7c-0.15-0.52-0.27-1.04,0.05-1.51
			c0.35-0.52,0.66-0.94,0.57-1.6c-0.09-0.67-1.79-2.1-0.19-2.13c0.52-0.01,0.9-0.07,1.25-0.5c0.32-0.39-0.46-1.28-0.68-1.57
			c-0.44-0.57-2.43-2.58-3.13-1.52c-0.33,0.5,0.01,1.17,0.16,1.68c0.23,0.8,0.02,1.59,0.13,2.39c0.09,0.68,0.42,0.75-0.14,1.37
			c-0.53,0.58-0.27,1.11-0.04,1.77c0.24,0.69,0.11,1.47,0.27,2.18c0.08,0.37,0.22,0.71,0.45,1.01c0.29,0.39,0.34,0.8,0.58,1.2
			c0.74,1.24,1.92,1.96,2.82,3.04c0.39,0.47-0.35,0.92-0.79,1.19c-0.55,0.33-1.31,0.16-1.83-0.16c-0.63-0.38-0.7-1.14-1.02-1.73
			c-0.33-0.61-0.63-1.13-0.74-1.82c-0.04-0.25,0-1.43,0.56-1.17c0.52,0.23,0.93,0.94,1.44,1.24c0.78,0.47,2.21-1.29,2.51-1.81
			c0.67-1.18,0.73-1.8-0.24-2.81c-0.81-0.84-1.47-2.02-2.78-2.09c-1.03-0.06-2.32,1.11-1.32,2.08"/>
		<g>
			
				<ellipse transform="matrix(0.7605 -0.6494 0.6494 0.7605 -21.1204 37.2178)" fill="#EE8925" cx="39.89" cy="47.24" rx="1.43" ry="2.12"/>
			<path fill="#E87524" d="M39.06,46.89c-0.23,0.2-0.18,0.63,0.11,0.97c0.29,0.34,0.71,0.46,0.94,0.26c0.23-0.2,0.18-0.63-0.11-0.97
				C39.71,46.81,39.29,46.69,39.06,46.89z"/>
		</g>
		<g>
			<path fill="#EE8925" d="M68.75,78.84c0.76,0.89,0.89,2.03,0.29,2.54c-0.6,0.51-1.71,0.21-2.46-0.68
				c-0.76-0.89-0.89-2.03-0.29-2.54C66.89,77.65,67.99,77.95,68.75,78.84z"/>
			<path fill="#E87524" d="M66.83,79.42c-0.23,0.2-0.18,0.63,0.11,0.97c0.29,0.34,0.71,0.46,0.94,0.26c0.23-0.2,0.18-0.63-0.11-0.97
				C67.48,79.34,67.06,79.23,66.83,79.42z"/>
		</g>
		<path fill="#ECAD5D" d="M38.76,75.74c0.48-0.41,1.37-0.17,1.97,0.54c0.28,0.33,0.45,0.7,0.51,1.04c0.17-0.77-0.14-1.81-0.89-2.68
			c-1.05-1.23-2.55-1.66-3.36-0.97c-0.81,0.69-0.61,2.25,0.43,3.47c0.74,0.87,1.71,1.34,2.5,1.29c-0.33-0.11-0.67-0.34-0.95-0.66
			C38.38,77.06,38.28,76.16,38.76,75.74z"/>
		<path fill="none" stroke="#ECAD5D" stroke-width="0.4836" stroke-linecap="round" stroke-linejoin="bevel" d="M82.97,21.04
			c5.23,6.65,6.66,4.4,6.66,4.4"/>
		<path fill="none" stroke="#ECAD5D" stroke-width="0.4836" stroke-linecap="round" stroke-linejoin="bevel" d="M101.68,42.95
			c-5.75-6.21-3.3-7.27-3.3-7.27"/>
		<path fill="none" stroke="#010101" stroke-width="0.3224" stroke-miterlimit="10" d="M103.75,40.44
			c-3.31-5.03-5.44-4.88-5.44-4.88s0.54,1.63,2.05,3.53"/>
		<path fill="#010101" d="M99.89,37.13c-0.41,0.35-0.36,1.22,0.19,1.86c0.55,0.65,1.4,0.83,1.81,0.48c0.41-0.35,0.3-1.16-0.25-1.81
			C101.08,37.02,100.3,36.78,99.89,37.13z"/>
		<path fill="none" stroke="#010101" stroke-width="0.3224" stroke-miterlimit="10" d="M85.76,19.36c4.45,4.05,3.96,6.13,3.96,6.13
			s-1.52-0.79-3.16-2.58"/>
		<path fill="#010101" d="M88.42,23.69c-0.41,0.35-1.26,0.17-1.81-0.48c-0.55-0.64-0.6-1.51-0.19-1.86
			c0.41-0.35,1.19-0.11,1.74,0.53C88.72,22.53,88.83,23.34,88.42,23.69z"/>
		<path fill="#ECAD5D" d="M92.21,38.38c-0.68,0.58-1.71,0.5-2.3-0.19l-4.13-4.84c-0.59-0.69-0.51-1.72,0.17-2.3l0,0
			c0.68-0.58,1.71-0.49,2.3,0.2l4.13,4.84C92.97,36.76,92.89,37.79,92.21,38.38L92.21,38.38z"/>
		<path fill="#9B3021" d="M86.63,33.11c0.32,0.38,0.44,0.8,0.26,0.95c-0.17,0.15-0.58-0.03-0.9-0.41c-0.32-0.38-0.44-0.8-0.26-0.95
			C85.91,32.55,86.31,32.73,86.63,33.11z"/>
		
			<ellipse transform="matrix(0.7607 -0.6491 0.6491 0.7607 -2.9214 67.4148)" fill="#9B3021" cx="89.98" cy="37.67" rx="0.42" ry="0.89"/>
		<path fill="#ECAD5D" d="M91.68,36.03c-0.81,0.69-2.03,0.6-2.73-0.21l-1.03-1.2c-0.69-0.81-0.6-2.03,0.21-2.73l3.33-2.84
			c0.81-0.69,2.03-0.6,2.73,0.22l1.02,1.2c0.69,0.81,0.6,2.03-0.21,2.73L91.68,36.03z"/>
		<path fill="#010101" d="M87.63,42.95c2.02-1.73-2-4.4-3.11-5.19c-0.94-0.67-2.01-1.4-3.19-1.52c-1.25-0.12-2.43,0.41-3.48,1.04
			c-1.86,1.13-5.16,3.75-3.13,6.15c0.79,0.94,1.54,1.91,2.36,2.82c0.42,0.46,1.01,0.73,1.61,0.86c0.29,0.06,0.6,0.09,0.89,0.08
			c0.03,0,0.93-0.15,0.4-0.03c0.32-0.08,0.65-0.15,0.98-0.22c-0.27,0.06-0.54,0.12-0.81,0.18C82.86,46.53,85.56,44.72,87.63,42.95
			C88.33,42.35,86.53,43.9,87.63,42.95z"/>
		<path fill="#FFFFFF" d="M85.14,43.3c-0.42,0.35-0.8,0.1-1.16-0.32l0,0c-0.36-0.42-0.55-0.83-0.13-1.19l1.19-1.02
			c0.42-0.36,1.04-0.31,1.4,0.11l0,0c0.35,0.42,0.31,1.04-0.11,1.4L85.14,43.3z"/>
		<path fill="#FFFFFF" d="M83.8,41.81c-0.42,0.36-0.8,0.1-1.15-0.32l0,0c-0.36-0.42-0.55-0.84-0.14-1.19l1.19-1.02
			c0.42-0.36,1.04-0.31,1.4,0.11l0,0c0.36,0.42,0.31,1.04-0.11,1.4L83.8,41.81z"/>
		<path fill="#FFFFFF" d="M82.44,40.36c-0.42,0.35-0.8,0.1-1.15-0.32l0,0c-0.36-0.42-0.55-0.84-0.14-1.19l1.2-1.02
			c0.42-0.36,1.04-0.31,1.4,0.11l0,0c0.36,0.42,0.3,1.04-0.11,1.4L82.44,40.36z"/>
		<path fill="#FFFFFF" d="M81.34,38.71c-0.42,0.35-0.8,0.1-1.16-0.32l0,0c-0.36-0.42-0.55-0.83-0.14-1.19l1.19-1.02
			c0.42-0.36,1.05-0.31,1.4,0.11l0,0c0.36,0.42,0.31,1.05-0.11,1.4L81.34,38.71z"/>
		<path fill="#9B3021" d="M88.38,43.1c2.25-1.92-2.23-4.89-3.46-5.76c-1.04-0.75-2.23-1.56-3.54-1.69c-1.38-0.13-2.7,0.45-3.86,1.15
			c-2.06,1.25-5.73,4.17-3.48,6.84c0.88,1.04,1.72,2.12,2.63,3.13c0.46,0.51,1.13,0.81,1.79,0.95c0.33,0.07,0.66,0.1,1,0.1
			c0.03,0,1.03-0.17,0.44-0.04c0.36-0.08,0.72-0.16,1.09-0.24c-0.3,0.07-0.6,0.13-0.9,0.2C83.09,47.07,86.08,45.07,88.38,43.1
			C89.16,42.44,87.16,44.15,88.38,43.1z M81.22,46.23c0.21,0.11-0.95,0.38-1.14,0.35c-1.47-0.27-2.45-2.09-3.12-3.25
			c-0.54-0.94-1.09-2.05-1.1-3.16c0-0.19,0.22-0.87,0.22-0.83c0.03-0.65,0.96-1.38,1.45-1.76c0.61-0.48,1.37-0.75,2.14-0.75
			c1.48,0,3.1,0.77,4.3,1.57c0.76,0.5,1.46,1.1,2.13,1.72c0.81,0.74,0.6,1.95,0.13,2.43c-1.51,1.52-1.41,1.4-2.63,2.42
			C82.75,45.66,81.9,46.31,81.22,46.23z"/>
		<path fill="#FFFFFF" d="M76.08,39.33c0-0.04,0-0.05,0-0.05s-1.17,1.33,1.91,5.63c1.94,2.71,3.3,1.36,3.3,1.36
			s-0.02-0.01-0.07-0.04c-0.28-0.16-1.43-0.83-2.41-1.98C76.36,41.37,76.1,39.65,76.08,39.33z"/>
		<path fill="none" stroke="#E87524" stroke-width="0.4836" stroke-linecap="round" d="M92.01,27.58c0,0,1.89,0.72,2.99,2.01
			c1.1,1.29,1.62,3.39,1.62,3.39"/>
		<path fill="none" stroke="#E87524" stroke-width="0.4836" stroke-linecap="round" d="M95.77,27.57c0,0-1.41,1.21-2.49,0.62"/>
		<path fill="none" stroke="#E87524" stroke-width="0.4836" stroke-linecap="round" d="M97.12,29.15c0,0-1.42,1.2-1,2.36"/>
		<path fill="#FBED07" d="M91.49,12.07c0,0-5.1,0.97-9.66,2.89c-1.6,0.67-4.14,2.1-6.73,2.67c-3.7,0.82-4.87,0.13-4.87,0.13
			L81.92,6.2l7.21-1.81L91.49,12.07z"/>
		<path fill="#FBED07" d="M110.9,37.28c0,0-2.19,4.73-3.12,6.2c-1.17,1.85-3.3,4.66-4.31,6.86c-1,2.19-1.29,5.2-1.29,5.2l13.32-9.39
			l1.86-4.77L110.9,37.28z"/>
		<path fill="#ECAD5D" d="M111.94,38.13c0,0-0.95,1.66-1.2,2.29c-0.29,0.74-0.94,3.21-0.94,3.21s1.06-1.27,1.37-1.73
			c0.21-0.31,0.73-1.34,0.73-1.34l-0.5,2.54c0,0,0.66-1.03,1.17-2.07c0.4-0.81,0.68-1.67,0.75-1.74
			C113.48,39.15,111.94,38.13,111.94,38.13z"/>
		<path fill="#ECAD5D" d="M83.33,12.44c0,0,3.46-0.73,4.49-0.95c0.89-0.19,3.09-0.55,3.09-0.55l-0.86-2.29c0,0-2.16,1.05-2.88,1.34
			c-0.68,0.27-2.72,0.9-2.72,0.9s0.86,0.05,1.14,0.03c0.38-0.03,1.53-0.24,1.53-0.24s-1.48,0.62-1.96,0.81
			C84.37,11.81,83.33,12.44,83.33,12.44z"/>
		<path fill="#FCD404" d="M70.12,17.83c0,0,9.4-20.96,32.32-17.42c18.23,2.81,14.54,35.07,27.03,31.33c0,0-0.82,24.95-25.32,0.14
			C93.71,21.29,88.74,7.02,88.74,7.02s-3.24-0.48-8.64,3.2C76.39,12.75,70.12,17.83,70.12,17.83z"/>
		<g id="Sicherheitsnadel_8_">
			<circle fill="none" stroke="#4398D1" stroke-width="0.4836" stroke-miterlimit="10" cx="24.77" cy="79.05" r="1.06"/>
			<path fill="#4398D1" d="M33.86,87.97c0.94-1.26,2.55-0.07,2.55-0.07l-0.44,0.64c0,0,0.82,0.88,1.42,0.04
				c0.24-0.34,0.2-0.73-0.17-1.01c-0.27-0.21-0.79,0.15-1.43-0.4c-0.92-0.79-0.21-1.56-0.21-1.56s-0.43-0.48-0.29-0.65
				c0,0,1.52,1.28,2.5,2.12c0.41,0.35,1.05,1.08,0.13,2.17c-1.18,1.38-1.86,0.49-2.76-0.18C33.8,88.06,33.74,88.13,33.86,87.97z"/>
			<path fill="#FFFFFF" stroke="#4398D1" stroke-width="0.4836" stroke-miterlimit="10" d="M23.97,79.74
				c4.78,4.64,10.11,8.41,10.11,8.41"/>
			<path fill="none" stroke="#4398D1" stroke-width="0.4836" stroke-miterlimit="10" d="M25.41,78.19c1.23,0.63,2.69,1.63,2.69,1.63
				"/>
		</g>
		<path fill="#FCD404" d="M94.98,24.65c0,0-1.44,1.51-1.91,1.35c-0.13-0.04-1.96,0.2-3.41-4.73c-1.3-4.45-3.86-4.51-3.86-4.51
			s2.04-2.05,3.37-0.7c0.21,0.22-0.55-1.1-0.55-1.1s0.65-0.42,2.31,1.27c0.22,0.23-0.14-1.28-0.14-1.28s0.88-0.41,1.34,4.38
			C92.56,23.89,94.98,24.65,94.98,24.65z"/>
		<path fill="#FCD404" d="M99.52,30.96c0,0-1.59,1.33-1.53,1.8c0.02,0.13-0.86,1.6,4.57,3.61c4.35,1.61,4.54,3.78,4.54,3.78
			s1.65-0.52,0.33-2.18c-0.19-0.24,0.88,0.82,0.88,0.82s0.82-0.27-0.58-2.17c-0.19-0.26,1.22,1.36,1.22,1.36s0.17-3.38-4.63-3.89
			C99.77,33.6,99.52,30.96,99.52,30.96z"/>
		<path fill="#FBED07" d="M117.02,39.4c0,0-5.8-1.47-10.32-7.37c-4.32-5.64-5.5-12.44-7.01-20.3C97.55,0.63,88.18,1.56,88.18,1.56
			s12.21-6.39,19.52,9.62c2.36,5.17,1.79,8.22,4.02,14.23c2.16,5.82,6.05,8.41,6.05,8.41s-4.29-0.73-7.85-6.3
			c-1.7-2.65-2.5-5.99-4.12-11.61c-0.69-2.41-2.86-5.33-2.86-5.33s1.16,2.88,1.75,5.36c1.12,4.7,2.41,11.01,4.1,13.82
			C111.8,34.76,117.02,39.4,117.02,39.4z"/>
		<path fill="#FCD404" d="M115.57,40.35c0,0-1.54,4.49-4.14,7.07c-2.97,2.93-9.26,8.11-9.26,8.11s3.47,0.29,10.93-5.16
			c4.61-3.37,8.68-8.62,8.68-8.62L115.57,40.35z"/>
	</g>
</g>
</svg>
