<?xml version="1.0" encoding="utf-8"?>
<!-- Generator: Adobe Illustrator 16.0.0, SVG Export Plug-In . SVG Version: 6.00 Build 0)  -->
<!DOCTYPE svg PUBLIC "-//W3C//DTD SVG 1.1//EN" "http://www.w3.org/Graphics/SVG/1.1/DTD/svg11.dtd">
<svg version="1.1" xmlns="http://www.w3.org/2000/svg" xmlns:xlink="http://www.w3.org/1999/xlink" x="0px" y="0px"
	 width="136.77px" height="174.2px" viewBox="0 0 136.77 174.2" enable-background="new 0 0 136.77 174.2" xml:space="preserve">
<g id="triangle-group">
</g>
<g id="mound">
</g>
<g id="windmil">
</g>
<g id="square">
</g>
<g id="triangle">
</g>
<g id="trump3">
	<g>
		<path fill="#FCD404" d="M108.7,61.9c-0.01,9.57,2.82,8.67,2.15,8.93c-2.91,1.17-3.93-1.28-3.93-1.28s-1.39,3.91,1.46,5.13
			c1.61,0.69-5.44,0-5.44,0S108.7,58.16,108.7,61.9z"/>
		<path fill="#FCD404" d="M44.23,51.65c-2.98,9.09-5.39,7.35-4.84,7.81c2.4,2.02,4.13,0.01,4.13,0.01s0.1,4.14-2.99,4.41
			c-1.74,0.15,5.16,1.7,5.16,1.7S45.4,48.09,44.23,51.65z"/>
		<path fill="#E87524" d="M108.85,65.38c-0.43,0.43-0.89,0.84-1.4,1.24v0.01c-0.29,0.23-0.6,0.46-0.92,0.69l2.16-5.65l1.23-3.22
			l0.01-0.01l3.09-8.08c0,0,0.04,0.15,0.11,0.43v0.01c0.08,0.37,0.19,0.95,0.26,1.69v0.01C113.69,55.43,113.44,60.85,108.85,65.38z"
			/>
		<path fill="#E87524" d="M45.01,57.44c-0.38-0.52-0.73-1.04-1.03-1.55c-0.3-0.48-0.55-0.97-0.78-1.44
			c-2.65-5.57-1.24-10.58-0.07-13.21c0.07-0.17,0.14-0.32,0.21-0.46c0.45-0.95,0.82-1.48,0.82-1.48l0.34,7.3l0.03,0.59l0.05,0.99
			l0.15,3.23v0.01L45.01,57.44z"/>
		<path fill="#FFFFFF" stroke="#FCD404" stroke-miterlimit="10" d="M105.96,122.23c7.27,5.53,6.16,9.72,5.14,16.04
			c-0.61,3.8-3.34,9.07-7.21,12.42c-4.94,4.28-13.41,2.14-20.62,6.81c-6.85,4.44-15.83,3.97-24.59,2.57
			c-8.91-1.43-18.19-4.55-22.81-10.11c-3.53-4.25-14.33-7.63-17.67-13.25c-2.57-4.32-3.5-10.09-2.9-13.83
			c1.05-6.54,0.28-10.35,9.41-13.29L105.96,122.23z"/>
		<path fill="#EE8925" d="M111.53,129.68c0,0-19.9,14.62-49.15,9.92c-28.85-4.64-44.66-25.83-44.66-25.83s-7.06-48.38,54.96-38.29
			C134.59,85.56,111.53,129.68,111.53,129.68z"/>
		<path fill="#EE8925" d="M109.34,101.93c2.47,1.81,5.36,2.67,8.18,3.77c1.42,0.56,2.84,0.83,4.33,1.12c0.6,0.12,2.5,0.1,2.99,0.6
			c1.38,1.43,0.91,4.07,2.41,5.1c1.6,1.11,0.4-2.57,0.43-4.43c0.54,0.95,1.23,1.93,1.84,2.84c0.45,0.66,1.06,1.05,1.6,1.63
			c0.5,0.53,1.68-0.47,1.25-1.12c-1.64-2.52-1.63-2.55-2.2-3.55c1.3,0.25,3.67,4.15,4.71,2.98c1.05-1.18-2.55-3.4-3.06-4.82
			c1.2,0.67,3.31,2.46,4.41,1.84c0.76-0.43,0.55-0.81,0.37-1.09c-0.14-0.22-2.2-1.54-2.39-1.66c-0.39-0.25-3.99-2.68-2.87-3.93
			c0.97-1.09,3.42-2.52,1.9-3.61c-0.99-0.71-3.57,3.39-4.69,1.33c-1.31-2.43-2.04-4.81-3.71-6.92c-3.46-4.36-7.65-7.31-11.76-10.94
			c-3.18-2.81-7.78-5.12-11.7-6.7c-1.44-0.58-6.94-2.54-7.56-1.16c-0.96,2.13-0.98,6.3-0.34,8.49c0.81,2.78,2.74,5.23,4.36,7.58
			c1.22,1.76,1.61,3.5,2.33,5.54c0.33,0.95,0.23,2.28,1.27,2.76c1.38,0.64,2.5,0.99,3.78,1.9
			C106.51,100.41,107.94,101.1,109.34,101.93C110.31,102.64,109.34,101.93,109.34,101.93C111.81,103.74,109.34,101.93,109.34,101.93
			z"/>
		<g>
			<path fill="#010101" d="M14.69,89.3l-0.64-5.27c-0.1-0.79-1.28-1.3-2.64-1.13l-7.33,0.88L2.3,83.99
				c-1.36,0.17-2.39,0.94-2.3,1.73L0.64,91c0.1,0.79,1.28,1.3,2.64,1.13l0.43-0.05l7.51-0.91l1.16-0.14
				c0.56-0.07,1.07-0.24,1.46-0.48C14.41,90.22,14.74,89.77,14.69,89.3z"/>
			<path fill="#4398D1" d="M11.96,88.92c0.07,0.57-0.68,1.13-1.68,1.25l-6.65,0.8c-1,0.12-1.86-0.25-1.93-0.81l-0.46-3.8
				c-0.07-0.57,0.68-1.13,1.68-1.25l6.65-0.8c1-0.12,1.86,0.24,1.93,0.81L11.96,88.92z"/>
		</g>
		<path fill="#EE8925" d="M11.23,91.17c-0.05,0.14-0.09,0.29-0.13,0.44c-0.11,0.35-0.48,0.64-0.82,0.81
			c-0.52,0.26-0.94-0.24-1.17-0.51c-0.08,0-0.15-0.01-0.23-0.02c-0.11,0.22-0.32,0.59-0.71,0.64c-0.56,0.07-0.65-0.46-0.79-0.66
			c-0.02,0-0.04,0.01-0.06,0.01c-0.01,0-0.03,0-0.04,0.01c-0.12,0.28-0.34,0.98-0.62,1.02c-0.42,0.06-0.66-0.49-0.86-0.71
			c-0.06,0.02-0.12,0.04-0.18,0.06c-0.07,0.24-0.12,0.66-0.36,0.79c-0.56,0.29-1.02,0.02-1.33-0.51c-0.01-0.01-0.03-0.01-0.04-0.02
			c-0.36-0.25-0.17-0.84-0.03-1.2C4,90.95,4.02,90.56,4.4,90.33c0.21-0.13,0.34-0.15,0.55-0.05c0.13,0.06,0.29,0.31,0.36,0.38
			c0.15-0.14,0.25-0.39,0.4-0.53c0.2-0.19,0.26-0.22,0.53-0.17c0.2,0.03,0.37,0.01,0.51,0.16c0.14,0.14,0.12,0.39,0.26,0.49
			c0.15-0.18,0.16-0.43,0.32-0.57c0.28-0.24,0.53-0.25,0.93-0.09c0.3,0.12,0.44,0.3,0.62,0.58c0.06-0.21,0.29-0.6,0.5-0.7
			c0.27-0.12,0.57-0.01,0.85,0.07c0.44,0.12,0.97,0.72,1,1.19l-0.07,0.1L11.23,91.17z M52.8,74.71c-0.12-1.77-0.13-3.65,0.17-5.39
			c0.34-1.93,0.1-3.48-1.24-4.94c-0.5-0.54-0.92-0.24-1.56,0.07c-0.58,0.28-1.14,0.51-1.74,0.7l-2.24,0.37
			c-0.59-0.09-1.13-0.03-1.72-0.13c-0.64-0.11-1.33-0.37-1.98-0.32c-21.5,1.74-30.55,14.64-31.2,15.41
			c-0.26,0.31-0.2,0.72-0.53,0.98C10.22,81.89,8.3,81.98,7.79,82C7.18,82.02,6.59,81.68,6,81.79c-0.47,0.08-0.86,0.23-1.33,0.36
			c-0.53,0.14-0.57,0.46-0.59,0.79c-0.06,0.04-0.13,0.09-0.18,0.14c-0.23,1.42,3.54,3.33,4.08,1.23c0.11-0.4,0.11-0.74,0.04-1.01
			l3.38-0.41c1.37-0.17,2.55,0.34,2.64,1.13l0.64,5.28c0.06,0.46-0.28,0.92-0.84,1.25c0.79,0.17,1.69,0.37,2.61,0.34
			c0.57-0.02,4.12-0.25,5.36-0.19c1.06,0.06,2.27,0.19,3.34,0.15c2.18-0.08,4.37-0.14,6.55-0.01c1.13,0.06,2.35,0.16,3.47,0.02
			c0.91-0.11,1.84-0.57,2.67-0.95c2.11-0.97,4.32-2.36,6.62-2.8c1.51-0.29,2.91-0.9,4.38-1.39c1.58-0.53,2.03-1.8,2.31-3.39
			c0.28-1.62,1.17-3.14,1.5-4.78C52.87,76.59,52.86,75.69,52.8,74.71z"/>
		<path fill="#EE8925" d="M113.77,48.92c-0.21,0.62-0.42,1.24-0.64,1.87v0.01c-0.73,2.12-1.47,4.28-2.23,6.42
			c0,0.01,0,0.01-0.01,0.01c-0.71,2.02-1.43,4.01-2.17,5.98v0.02c-0.42,1.15-0.84,2.28-1.27,3.39v0.01c-1.1,2.89-2.2,5.64-3.26,8.15
			c-0.1,0.23-0.2,0.46-0.29,0.69c-1.4,3.25-2.74,6.06-3.95,8.18c-0.14,0.24-0.29,0.48-0.47,0.71c-0.16,0.23-0.34,0.46-0.53,0.68
			c-0.68,0.78-1.54,1.52-2.54,2.22c-0.32,0.22-0.64,0.43-0.99,0.64c-0.24,0.15-0.5,0.3-0.76,0.44c-0.07,0.04-0.13,0.08-0.2,0.11
			c-0.23,0.13-0.47,0.25-0.71,0.37c-0.31,0.16-0.63,0.31-0.96,0.46c-0.51,0.23-1.04,0.45-1.58,0.66c-0.33,0.13-0.67,0.25-1.02,0.37
			c-0.05,0.02-0.11,0.04-0.18,0.06c-0.39,0.14-0.79,0.27-1.2,0.39c-0.18,0.06-0.36,0.11-0.55,0.16c-0.17,0.05-0.33,0.1-0.5,0.14
			c-0.52,0.14-1.05,0.27-1.58,0.4c-0.01,0-0.03,0-0.05,0.01c-0.52,0.11-1.04,0.22-1.57,0.32c-0.04,0.01-0.08,0.02-0.12,0.02
			c-0.3,0.06-0.61,0.11-0.92,0.16c-0.31,0.05-0.62,0.1-0.93,0.14c-0.6,0.08-1.2,0.15-1.82,0.21c-0.4,0.03-0.8,0.07-1.21,0.09
			c-0.93,0.06-1.88,0.09-2.83,0.09c-0.46,0-0.93-0.01-1.39-0.03c-0.42-0.02-0.84-0.04-1.26-0.07c-0.4-0.03-0.8-0.06-1.19-0.1
			c-0.21-0.02-0.42-0.04-0.62-0.06c-0.19-0.03-0.38-0.05-0.57-0.08c-0.4-0.05-0.79-0.11-1.18-0.17c-0.57-0.09-1.13-0.2-1.68-0.32
			h-0.01c-0.12-0.03-0.25-0.05-0.37-0.08c-0.27-0.06-0.53-0.12-0.79-0.19c-0.45-0.11-0.9-0.23-1.34-0.36
			c-0.31-0.08-0.61-0.17-0.91-0.27c-0.37-0.11-0.73-0.23-1.09-0.36c-0.01,0-0.02,0-0.03-0.01c-1.4-0.49-2.74-1.05-4-1.67
			c-0.6-0.3-1.19-0.61-1.76-0.93c-1.77-0.99-3.38-2.09-4.79-3.23c-0.23-0.18-0.46-0.37-0.67-0.56c-0.23-0.19-0.45-0.38-0.66-0.58
			c-0.44-0.38-0.85-0.78-1.23-1.17c-0.02-0.01-0.03-0.02-0.04-0.04c-0.22-0.22-0.43-0.44-0.64-0.67c-0.22-0.24-0.43-0.47-0.62-0.7
			c-0.14-0.16-0.27-0.32-0.4-0.48c-0.26-0.32-0.5-0.63-0.72-0.94c-0.12-0.15-0.23-0.31-0.33-0.46c-0.22-0.31-0.41-0.62-0.59-0.92
			c-0.07-0.11-0.14-0.23-0.2-0.34c-0.15-0.25-0.28-0.5-0.4-0.75c-0.1-0.2-0.19-0.39-0.28-0.59c0-0.01-0.01-0.03-0.02-0.04
			c-0.06-0.16-0.13-0.33-0.19-0.49c-0.1-0.27-0.19-0.53-0.26-0.78c-0.01-0.05-0.03-0.09-0.04-0.14c-0.07-0.25-0.14-0.52-0.21-0.79
			c-0.57-2.33-1.05-5.31-1.44-8.7c0-0.02,0-0.04-0.01-0.06c-0.33-2.91-0.6-6.12-0.82-9.48c-0.07-0.99-0.13-1.99-0.18-3
			c-0.17-2.99-0.3-6.07-0.4-9.13c-0.02-0.61-0.04-1.21-0.06-1.82c-0.01-0.39-0.01-0.77,0-1.16c0.1-3.36,1.05-6.65,2.5-9.73
			L44.5,46.6l0.03,0.59c0.57-2.93,2.07-10.53,3.32-15.11c2.31-8.39,6.01-10.7,6.01-10.7s0.86,0.5,2.4,1.31
			c0.21-0.47,0.35-0.79,0.35-0.79l2.84,1.58c0,0-0.18,0.22-0.46,0.55c0.48,0.24,0.99,0.48,1.53,0.73
			c6.83,3.12,18.17,7.45,30.42,8.52c4.51,0.39,8.38,0.5,11.69,0.37c-0.12-0.43-0.19-0.69-0.19-0.69l7.74-1.1l2.5-1.31
			c0.18,0.48,0.34,0.96,0.49,1.46c0.51,1.59,0.94,3.24,1.23,4.94l-1.66-4.8c-0.8,0.25-1.67,0.48-2.62,0.67
			c0.6,1.76,1.94,6.17,1.61,9.96c-0.44,5.16-2.13,14.78-2.35,16.07l5.25-20.4C115.07,41.94,114.92,45.54,113.77,48.92z"/>
		<path fill="none" stroke="#EE8925" stroke-width="1.0733" stroke-linecap="round" d="M99.95,83.65c-0.27,0.47-0.61,0.94-1.01,1.39
			c-4.57,5.24-17.01,8.83-28.43,6.94c-13.44-2.22-22.42-11.23-24.02-16.92c-0.08-0.3-0.17-0.61-0.25-0.93"/>
		<path fill="none" stroke="#EE8925" stroke-width="1.0733" stroke-linecap="round" d="M55.69,73.17
			c-1.22,8.94,23.97,25.38,33.84,5.22"/>
		<path fill="none" stroke="#EE8925" stroke-width="0.644" stroke-linecap="round" d="M66.99,63.03c0,0-6.73,14.14,12.39,12.86"/>
		<path fill="none" stroke="#EE8925" stroke-width="0.644" stroke-linecap="round" d="M83.03,71.47c0,0-0.3-2.88,0.6-9.14"/>
		<path fill="none" stroke="#E87524" stroke-width="0.644" stroke-linecap="round" stroke-linejoin="bevel" d="M67.28,53.51
			c0.23-1.41,0.83-8.02,7.2-6.89l5.9,0.95c7.18,1.15,6.7,8.33,6.48,9.74"/>
		
			<ellipse transform="matrix(-0.2735 -0.9619 0.9619 -0.2735 31.9268 118.2245)" fill="#EE8925" cx="60.61" cy="47.05" rx="6.07" ry="7.73"/>
		
			<ellipse transform="matrix(-0.561 0.8278 -0.8278 -0.561 191.5007 3.9533)" fill="#EE8925" cx="94.7" cy="52.75" rx="6.07" ry="7.72"/>
		<path fill="#ECAD5D" d="M71.89,40.62c-0.59,3.59-7.31,3.71-9.64,3.34c-2.33-0.37-4.04-3.13-3.56-6.11
			c0.48-2.98,1.48-5.3,3.81-4.93C64.83,33.3,72.4,37.53,71.89,40.62z"/>
		<path fill="#ECAD5D" d="M86.78,43.02c-0.56,3.6,5.78,5.82,8.11,6.19c2.33,0.37,4.81-1.71,5.29-4.69c0.48-2.98,0.25-5.5-2.07-5.87
			C95.78,38.27,87.27,39.92,86.78,43.02z"/>
		<path fill="none" stroke="#EE8925" stroke-width="0.644" stroke-linecap="round" stroke-linejoin="round" d="M32.01,114.25
			c9.17-2.95,21.34-3.73,34.3-1.65c13.4,2.15,25.02,6.94,32.83,12.88"/>
		<path fill="#EE8925" d="M31.38,135.68c-5.34-3.35-11.8-2.65-14.45,1.56c-1.68,2.67-1.41,6.11,0.36,9.12
			c-0.58,0.36-1.06,0.85-1.39,1.46c-0.83,1.56-0.46,3.52,0.8,5.18c-0.55,1.05-0.44,2.08-0.59,3.27c-0.06,0.47-0.96,1.41-0.64,2.06
			c0.16,0.33,0.98,0.3,0.97,0.03c-0.06,0.96-0.02,2.67,1.21,1.2c-0.49,1.31,0.57,2.81,1.36,1c0.28,3.2,2.02,0.67,2.06,0.7
			c0.21,0.16,0.17,1.44,1.23,1.29c0.87-0.12,1.21-1.25,1.17-2.02c-0.04-0.87-0.96-1-0.48-2.22c0.31-0.79,0.45-1.33,0.45-1.98
			c1.86-0.03,3.47-0.8,4.24-2.23c0.19-0.35,0.31-0.71,0.38-1.09c3.41,0.23,6.54-1.03,8.19-3.65
			C38.9,145.15,36.72,139.02,31.38,135.68z"/>
		<path fill="#EE8925" d="M91.84,145.39c6.11-1.51,12.04,1.18,13.23,6.01c0.76,3.06-0.57,6.25-3.2,8.55
			c0.44,0.53,0.74,1.14,0.86,1.82c0.31,1.74-0.67,3.49-2.38,4.67c0.19,1.16-0.23,2.11-0.46,3.29c-0.09,0.47,0.46,1.64-0.04,2.16
			c-0.25,0.26-1.03-0.02-0.93-0.28c-0.24,0.93-0.82,2.54-1.52,0.76c0.05,1.4-1.42,2.49-1.61,0.53c-1.27,2.95-2.12,0-2.18,0.02
			c-0.25,0.09-0.61,1.31-1.57,0.85c-0.79-0.39-0.75-1.57-0.48-2.29c0.31-0.82,1.22-0.65,1.16-1.96c-0.04-0.85-0.01-1.4,0.2-2.02
			c-1.76-0.61-3.05-1.84-3.32-3.44c-0.07-0.39-0.07-0.78-0.02-1.16c-3.31-0.85-5.89-3.03-6.63-6.04
			C81.73,152.04,85.72,146.9,91.84,145.39z"/>
		<path fill="none" stroke="#EE8925" stroke-width="0.4293" d="M24.49,93.04c1.83,20.45,39.51,21.17,41.73,6.7"/>
		<path fill="none" stroke="#EE8925" stroke-width="0.4293" d="M112.85,107.23c-8.14,18.84-44.15,7.74-41.73-6.7"/>
		<path fill="none" stroke="#FBED07" stroke-width="0.644" stroke-miterlimit="10" d="M64.99,101.53c-1.3-0.21-2.73-0.18-3.95-0.74
			c-1.6-0.74-2.84-0.65-4.52-0.64c-5.04,0.03,2.06,5.58,1.67,2.17c-0.07-0.63-0.68-1.26-0.85-1.89c-0.19-0.72-0.34-1.53-0.21-2.27
			c0.17-0.97,0.43-2.87,1.82-2.61c0.66,0.13,0.57,2.35,0.68,2.89c0.34,1.66,1.95,1.91,3.33,2.46c1.45,0.58,2.73,0.85,2.8-1.09
			c0.03-0.72-0.26-0.98-0.64-1.52c-0.42-0.59-0.47-1.33-0.56-2.02c-0.15-1.17,0.19-2.3,1.67-1.74c1.49,0.57,0.95,2.39,1.18,3.59
			c0.2,1.05,1.3,3.3,0.34,4.25c-0.6,0.59-0.93,0.66-1.14,1.59c-0.15,0.66-0.53,1.4-0.26,2.07c0.57,1.42,1.63,2.5,2.97,3.21
			c0.64,0.34,1.33,0.62,2.02,0.84c0.34,0.11,1.52,0.34,1.73,0.7c-0.83-0.46-0.89-1.54-1.24-2.32c-0.46-1.02-1.09-1.85-1.58-2.84
			c-0.58-1.18-0.82-2.18-0.76-3.47c0.02-0.47-0.29-1-0.07-1.45c0.71,0.02,1.39,0.29,2.12,0.3c0.11-1.22-1.62-1.08-2.44-1.53
			c-1.06-0.57-2.93-0.96-4.01-0.3c-0.99,0.6-1.39,1.69-1.31,2.83c0.11,1.53,2.19,1.21,3,0.54c-1.68-0.05-3.36-0.69-5.09-0.56
			c-1.59,0.13-3.25,1.74-2.64,3.42c0.44,1.25,2.1,1.41,3.19,1.7c0.99,0.26,1.96,0.6,3,0.62c1.57,0.03,0.81-1.23,0.08-1.95
			c-0.72-0.71-1.44-1.41-2.22-2.07c-0.85-0.72-0.74-1.02-0.45-2.03c0.33-1.14,1.4-4.38,0.02-5.17c-1.12-0.64-3.07-0.69-4.09,0.17
			c-1.24,1.06,0.61,3.11,1.7,3.47c1.02,0.33,4.58,1.62,4.93,0.23c0.4-1.56-0.94-3.28,1.22-4.07c0.53-0.19,4.03-0.53,4.01,0.66
			c1.79,0.58,2.7,1.66,2.54,3.65c-0.16,2.12-2.07,2.18-3.68,1.42c-1.38-0.66-2.98-1.9-2.89-3.59c0.05-0.91,0.59-1.18,1.23-1.71
			c0.72-0.6,1.56-1.55,1.83-2.46c0.25-0.85-0.2-2.37-0.95-2.89c-0.22,0.36-2.76-0.64-3.28-0.75c-0.78-0.16-2.24-0.64-2.98-0.11
			c-0.82,0.58,0.25,2.53,0.5,3.22c0.43,1.15,0.71,2.11,1.8,2.8c1.03,0.64,2.18,0.96,3.21,1.55c2.35,1.36,4.56,0.46,6.93-0.15
			c0.81-0.21,1.8-0.5,2.13-1.36c0.35-0.93,0.21-2.13-0.64-2.73c-0.74-0.53-1.95-0.95-2.84-1.16c-1.41-0.33-1.52,1.04-1.64,2.08
			c-0.1,0.85-0.27,2.3,0.21,3.05c0.64,0.99,1.57,1.32,2.28,2.18c1.6,1.91,1.23,4.72,0.57,6.86c-1.1-0.9-2.12-2.56-3.48-3.06
			c-1.36-0.49-2.81-1.29-4.24-1.54c-0.39-0.07-0.9,0.72-1.13,0.98c-0.5,0.55-0.34,1.26,0.08,1.8c0.98,1.26,2.37,1.42,3.85,1.62
			c1.64,0.23,2.58,1.5,4.17,1.76c1.29,0.21,2.39-1.31,1.8-2.54c-0.23-0.48-0.77-0.64-1.1-1.03c-0.44-0.51-0.51-1.1-1.06-1.55
			c-1.01-0.84-1.65-1.58-2.8-1.77c-0.52-0.08-1.3,0.33-0.67,0.84c0.54,0.45,1.24,0.69,1.8,1.13c0.83,0.65,0.85-1.61,0.87-2.17
			c0.04-1.02-4.38-6.13-1.44-5.93c1.31,0.09,2.62,0.06,3.93,0.14c1.69,0.1,2.42,0.51,3.56,1.67c0.39,0.39,0.93,0.76,0.94,1.38
			c0,0.73-1.33,0.17-1.91,0.35c-0.82,0.26-1.67,0.43-2.37,0.96c-0.6,0.45-0.71,1.38-1.23,1.74c-0.25-0.63-0.06-1.82-0.04-2.48
			c0.02-0.51,0.05-1.03,0.2-1.52c0.46,0.01,0.92,0.13,1.35,0.29c1.66,0.64,3.71,0.9,4.94,2.15c1.15,1.17,1.04,3.3,0.79,4.79
			c-0.22,1.37-3.9-0.89-4.65-1.15c-0.84-0.29-1.43-1.06-2.17-1.52c-0.71-0.44-1.43-0.69-2.13-1.16c-0.6-0.39-1.16-0.82-1.25-1.57
			c-0.09-0.83-0.14-1.52-0.8-2.12c-0.67-0.6-3.63-0.59-2.04-2c0.52-0.46,0.85-0.84,0.83-1.58c-0.02-0.68-1.57-0.91-2.05-1.01
			c-0.93-0.2-4.7-0.52-4.48,1.16c0.1,0.79,1.02,1.17,1.61,1.56c0.93,0.61,1.38,1.59,2.19,2.32c0.69,0.61,1.08,0.39,1.04,1.52
			c-0.04,1.05,0.68,1.36,1.48,1.83c0.83,0.49,1.38,1.39,2.15,1.97c0.4,0.3,0.84,0.53,1.33,0.63c0.63,0.14,1.03,0.52,1.63,0.72
			c1.82,0.62,3.64,0.34,5.49,0.66c0.8,0.14,0.44,1.24,0.22,1.89c-0.27,0.81-1.2,1.29-2,1.42c-0.97,0.16-1.69-0.55-2.54-0.87
			c-0.86-0.33-1.61-0.6-2.33-1.21c-0.26-0.22-1.24-1.45-0.45-1.68c0.72-0.21,1.75,0.16,2.53,0.03c1.2-0.2,1.13-3.21,0.98-4
			c-0.34-1.77-0.81-2.45-2.67-2.64c-1.54-0.15-3.23-0.78-4.63,0.28c-1.1,0.83-1.39,3.12,0.45,3.25"/>
		<g>
			
				<ellipse transform="matrix(0.1589 -0.9873 0.9873 0.1589 -70.1817 126.2601)" fill="#EE8925" cx="39.01" cy="104.32" rx="1.91" ry="2.82"/>
			<path fill="#E87524" d="M37.86,104.68c-0.06,0.4,0.36,0.79,0.95,0.89c0.59,0.09,1.11-0.15,1.18-0.55
				c0.06-0.4-0.36-0.79-0.95-0.89C38.45,104.04,37.93,104.29,37.86,104.68z"/>
		</g>
		<g>
			<path fill="#EE8925" d="M95.55,111.47c1.54,0.25,2.65,1.29,2.48,2.33c-0.17,1.04-1.55,1.68-3.09,1.43
				c-1.54-0.25-2.65-1.29-2.48-2.33C92.63,111.87,94.01,111.22,95.55,111.47z"/>
			<path fill="#E87524" d="M94.1,113.72c-0.06,0.4,0.36,0.79,0.95,0.89c0.58,0.09,1.11-0.15,1.18-0.55
				c0.06-0.39-0.36-0.79-0.95-0.89C94.69,113.08,94.17,113.32,94.1,113.72z"/>
		</g>
		<path fill="#ECAD5D" d="M62.46,134.2c0.13-0.84,1.24-1.35,2.47-1.15c0.57,0.09,1.06,0.32,1.41,0.62c-0.5-0.93-1.71-1.71-3.21-1.95
			c-2.12-0.34-4.03,0.52-4.25,1.92c-0.22,1.4,1.31,2.81,3.44,3.15c1.51,0.24,2.89-0.12,3.66-0.85c-0.43,0.17-0.97,0.23-1.54,0.14
			C63.21,135.87,62.33,135.04,62.46,134.2z"/>
		<path fill="none" stroke="#ECAD5D" stroke-width="0.644" stroke-linecap="round" stroke-linejoin="bevel" d="M60.1,40.58
			c11.05,2.23,10.55-1.29,10.55-1.29"/>
		<path fill="none" stroke="#ECAD5D" stroke-width="0.644" stroke-linecap="round" stroke-linejoin="bevel" d="M97.98,46.66
			c-11.19-1.34-9.62-4.53-9.62-4.53"/>
		<path fill="none" stroke="#010101" stroke-width="0.4293" stroke-miterlimit="10" d="M97.91,42.32c-7.69-2.25-9.72-0.26-9.72-0.26
			s1.96,1.18,5.13,1.81"/>
		<path fill="#010101" d="M91.14,42.3c-0.11,0.71,0.68,1.55,1.8,1.73c1.12,0.18,2.13-0.37,2.25-1.08c0.11-0.71-0.7-1.43-1.82-1.61
			C92.26,41.16,91.26,41.59,91.14,42.3z"/>
		<path fill="none" stroke="#010101" stroke-width="0.4293" stroke-miterlimit="10" d="M61.48,36.47c8,0.27,9.31,2.8,9.31,2.8
			s-2.23,0.51-5.44,0.11"/>
		<path fill="#010101" d="M67.92,38.57c-0.11,0.71-1.13,1.25-2.25,1.08c-1.12-0.18-1.91-1.02-1.8-1.73
			c0.12-0.71,1.11-1.14,2.23-0.96C67.22,37.13,68.03,37.86,67.92,38.57z"/>
		<path fill="#ECAD5D" d="M84.44,50.19c-0.19,1.18-1.31,1.98-2.5,1.79l-8.37-1.34c-1.19-0.19-2.01-1.3-1.82-2.48l0,0
			c0.19-1.18,1.31-1.98,2.5-1.79l8.37,1.34C83.81,47.9,84.63,49.01,84.44,50.19L84.44,50.19z"/>
		
			<ellipse transform="matrix(0.1591 -0.9873 0.9873 0.1591 12.7744 115.4136)" fill="#9B3021" cx="74.14" cy="50.21" rx="0.56" ry="1.19"/>
		
			<ellipse transform="matrix(0.1593 -0.9872 0.9872 0.1593 17.825 123.7304)" fill="#9B3021" cx="81.56" cy="51.4" rx="0.56" ry="1.19"/>
		<path fill="#ECAD5D" d="M81.88,48.27c-0.22,1.4-1.54,2.36-2.95,2.13l-2.08-0.33c-1.4-0.23-2.36-1.55-2.13-2.95l0.92-5.75
			c0.23-1.4,1.55-2.36,2.95-2.13l2.08,0.33c1.4,0.22,2.36,1.55,2.13,2.95L81.88,48.27z"/>
		<path fill="#010101" d="M83.74,58.78c0.56-3.5-5.83-2.73-7.63-2.58c-1.54,0.13-3.25,0.31-4.54,1.21
			c-1.37,0.95-2.12,2.51-2.63,4.05c-0.91,2.75-2,8.25,2.13,8.95c1.61,0.27,3.21,0.6,4.83,0.81c0.82,0.11,1.66-0.14,2.38-0.52
			c0.35-0.19,0.69-0.42,0.98-0.69c0.03-0.02,0.81-0.95,0.38-0.37c0.27-0.35,0.54-0.71,0.8-1.06c-0.22,0.29-0.44,0.58-0.66,0.88
			C81.98,66.52,83.16,62.37,83.74,58.78C83.93,57.57,83.43,60.69,83.74,58.78z"/>
		<path fill="#FFFFFF" d="M81.51,61.29c-0.12,0.72-0.73,0.79-1.45,0.67l0,0c-0.72-0.12-1.28-0.37-1.16-1.09l0.33-2.06
			c0.12-0.72,0.79-1.21,1.52-1.1l0,0c0.72,0.12,1.21,0.79,1.1,1.52L81.51,61.29z"/>
		<path fill="#FFFFFF" d="M78.87,60.93c-0.12,0.72-0.73,0.79-1.45,0.67l0,0c-0.72-0.12-1.28-0.37-1.17-1.09l0.33-2.06
			c0.12-0.72,0.79-1.21,1.52-1.1l0,0c0.72,0.12,1.21,0.8,1.1,1.52L78.87,60.93z"/>
		<path fill="#FFFFFF" d="M76.23,60.63c-0.12,0.72-0.72,0.79-1.45,0.67l0,0c-0.72-0.12-1.28-0.37-1.17-1.09l0.33-2.06
			c0.12-0.72,0.79-1.21,1.52-1.1l0,0c0.72,0.12,1.21,0.79,1.1,1.52L76.23,60.63z"/>
		<path fill="#FFFFFF" d="M73.7,59.9c-0.12,0.72-0.73,0.79-1.45,0.67l0,0c-0.72-0.11-1.28-0.37-1.17-1.09l0.33-2.06
			c0.12-0.72,0.79-1.21,1.52-1.09l0,0c0.72,0.12,1.21,0.79,1.1,1.52L73.7,59.9z"/>
		<path fill="#9B3021" d="M84.63,58.29c0.63-3.89-6.48-3.04-8.48-2.87c-1.7,0.14-3.61,0.34-5.05,1.34c-1.52,1.06-2.36,2.79-2.92,4.5
			c-1.01,3.05-2.22,9.17,2.36,9.94c1.79,0.3,3.57,0.67,5.37,0.91c0.91,0.12,1.84-0.15,2.64-0.58c0.39-0.21,0.76-0.46,1.09-0.76
			c0.03-0.03,0.9-1.06,0.42-0.41c0.3-0.39,0.6-0.79,0.9-1.18c-0.25,0.32-0.49,0.65-0.74,0.97C82.68,66.88,83.99,62.27,84.63,58.29
			C84.84,56.94,84.29,60.41,84.63,58.29z M80.06,67.64c0.31-0.06-0.63,1.2-0.86,1.33c-1.73,1-4.28,0-5.97-0.61
			c-1.36-0.49-2.88-1.13-3.84-2.26c-0.16-0.19-0.53-1.07-0.49-1.03c-0.53-0.68-0.21-2.23-0.05-3.04c0.2-1.01,0.74-1.94,1.53-2.61
			c1.5-1.28,3.8-1.89,5.71-2.13c1.21-0.15,2.43-0.14,3.64-0.1c1.46,0.06,2.29,1.46,2.22,2.36c-0.22,2.85-0.22,2.64-0.58,4.73
			C81.12,65.75,80.82,67.13,80.06,67.64z"/>
		<path fill="#FFFFFF" d="M68.9,65.08c-0.03-0.03-0.05-0.05-0.05-0.05s-0.04,2.36,6.79,4.06c4.31,1.07,4.52-1.47,4.52-1.47
			s-0.04,0.01-0.1,0.02c-0.43,0.09-2.16,0.4-4.15,0.07C70.94,66.9,69.19,65.37,68.9,65.08z"/>
		<path fill="none" stroke="#E87524" stroke-width="0.644" stroke-linecap="round" d="M74.91,39.4c0,0,2.54-0.9,4.76-0.54
			c2.23,0.36,4.56,2.04,4.56,2.04"/>
		<path fill="none" stroke="#E87524" stroke-width="0.644" stroke-linecap="round" d="M78.72,36.16c0,0-0.38,2.44-1.99,2.78"/>
		<path fill="none" stroke="#E87524" stroke-width="0.644" stroke-linecap="round" d="M81.46,36.6c0,0-0.4,2.44,1.02,3.26"/>
		<path fill="#FBED07" d="M60.52,24.76c-1.22,1.58-4.45,5.95-6.81,10.64c-1.04,2.06-2.39,5.7-4.52,8.51
			c-2.42,3.21-4.05,4.06-4.61,4.27c-0.14,0.06-0.22,0.07-0.22,0.07l0.03-0.3c0,0,0-0.01,0-0.02l0.11-1.33l0.03,0.59
			c0.57-2.93,2.07-10.53,3.32-15.11c2.31-8.39,6.01-10.7,6.01-10.7s0.86,0.5,2.4,1.31c0.21-0.47,0.35-0.79,0.35-0.79l2.84,1.58
			c0,0-0.18,0.22-0.46,0.55C59.47,24.27,59.98,24.51,60.52,24.76z"/>
		<path fill="#FBED07" d="M110.12,32.82c0.6,1.76,1.94,6.17,1.61,9.96c-0.44,5.16-2.13,14.78-2.35,16.07
			c-0.01,0.04-0.02,0.08-0.02,0.1c0,0.01,0,0.01,0,0.02v0.02L109.35,59c0,0-2.31-3.3-3.18-6.38c-0.88-3.12-1.14-7.8-1.55-10.69
			c-0.26-1.84-1.51-6.52-1.99-8.28c-0.12-0.43-0.19-0.69-0.19-0.69l7.74-1.1l2.35-0.33l0.21,0.62
			C111.94,32.4,111.07,32.63,110.12,32.82z"/>
		<path fill="#ECAD5D" d="M104.23,32.91c0,0,0.46,2.5,0.76,3.36c0.35,1,1.81,4.07,1.81,4.07s-0.02-2.2-0.1-2.94
			c-0.05-0.49-0.42-1.99-0.42-1.99l1.68,3.01c0,0-0.22-1.62-0.6-3.12c-0.29-1.17-0.76-2.28-0.74-2.4
			C106.67,32.62,104.23,32.91,104.23,32.91z"/>
		<path fill="#ECAD5D" d="M59.45,23.48c0,0-0.18,0.22-0.46,0.55c-0.61,0.73-1.69,2.02-2.2,2.68c-0.82,1.06-3.5,4.53-3.73,4.82
			c0.05-0.17,0.53-1.58,1.03-2.52c0.31-0.58,1.17-2.29,1.28-2.5c-0.14,0.16-1,1.22-1.33,1.54c-0.25,0.25-1.07,0.88-1.17,0.95
			c0.12-0.2,1.54-2.43,1.98-3.26c0.32-0.61,1-2.12,1.41-3.05c0.21-0.47,0.35-0.79,0.35-0.79L59.45,23.48z"/>
		<path fill="#FBED07" d="M110.18,31.86l-7.74,1.1c0,0,0.07,0.26,0.19,0.69c-3.31,0.13-7.18,0.02-11.69-0.37
			c-12.25-1.07-23.59-5.4-30.42-8.52c-0.54-0.25-1.05-0.49-1.53-0.73c0.28-0.33,0.46-0.55,0.46-0.55l-2.84-1.58
			c0,0-0.14,0.32-0.35,0.79c-1.54-0.81-2.4-1.31-2.4-1.31s-3.7,2.31-6.01,10.7c-1.25,4.58-2.75,12.18-3.32,15.11L44.5,46.6
			l1.34-15.55c-1.45,3.08-2.4,6.37-2.5,9.73c-0.07,0.14-0.14,0.29-0.21,0.46c-0.53-6.53-0.01-16.57,5.91-25.85
			c-0.28,0.52-0.43,0.86-0.45,0.93c0.27-0.27,5.38-5.32,12.93-3.49c2.3,0.55,4.82,1.74,7.51,3.89c8.31,6.66,15.38,12.54,24.63,14.53
			c9.67,2.09,16.82-1.42,16.82-1.42s-9.3-0.2-16.67-2.68c-4.13-1.39-10.89-6.68-16.07-10.48c-2.74-2.01-6.4-3.93-6.4-3.93
			s4.72,1.1,7.5,2.94c6.48,4.31,10.18,7,14.18,8.23c8.42,2.57,13.4-0.39,13.4-0.39s-6.17,0.73-13.38-3.31
			c-3.46-1.93-5.75-3.74-7.91-5.44l20.31,3.26c0.79,0.12,4.71,5.45,7.24,12.52L110.18,31.86z"/>
		<path fill="#FCD404" d="M45.84,31.05L44.5,46.6l0.03,0.59c-0.06,0.3-0.11,0.55-0.14,0.74c0,0.01,0,0.02,0,0.02
			c-0.06,0.29-0.09,0.45-0.09,0.45s-0.51-1.75-0.9-4.64c-0.1-0.76-0.2-1.6-0.27-2.52c0.07-0.17,0.14-0.32,0.21-0.46
			C43.44,37.42,44.39,34.13,45.84,31.05z"/>
		<path fill="#FCD404" d="M56.61,21.9l2.84,1.58c0,0-0.18,0.22-0.46,0.55c-1.06-0.5-1.98-0.96-2.73-1.34
			C56.47,22.22,56.61,21.9,56.61,21.9z"/>
		<path fill="#FCD404" d="M113.17,32.01c-0.14,0.05-0.29,0.1-0.43,0.14c-0.8,0.25-1.67,0.48-2.62,0.67
			c-1.03,0.21-2.15,0.39-3.37,0.52c-0.76,0.09-1.55,0.17-2.39,0.22c-0.56,0.04-1.14,0.07-1.73,0.09c-0.12-0.43-0.19-0.69-0.19-0.69
			l7.74-1.1l2.5-1.31C112.86,31.03,113.02,31.51,113.17,32.01z"/>
		<g id="Sicherheitsnadel">
			<circle fill="none" stroke="#4398D1" stroke-width="0.644" stroke-miterlimit="10" cx="51.12" cy="149.63" r="1.4"/>
			<path fill="#4398D1" d="M68.04,150.84c-0.14-2.09,2.53-2.27,2.53-2.27l0.11,1.03c0,0,1.59,0.19,1.48-1.19
				c-0.05-0.55-0.43-0.91-1.04-0.88c-0.46,0.03-0.68,0.84-1.79,0.83c-1.61-0.01-1.57-1.4-1.57-1.4s-0.86-0.12-0.85-0.41
				c0,0,2.64-0.02,4.37-0.01c0.72,0,2,0.19,2,2.08c0,2.41-1.46,2.1-2.96,2.2C68.05,150.97,68.06,151.11,68.04,150.84z"/>
			<path fill="#FFFFFF" stroke="#4398D1" stroke-width="0.644" stroke-miterlimit="10" d="M50.9,151.01
				c8.85,0.59,17.51-0.19,17.51-0.19"/>
			<path fill="none" stroke="#4398D1" stroke-width="0.644" stroke-miterlimit="10" d="M51.02,148.2c1.8-0.42,4.14-0.66,4.14-0.66"
				/>
		</g>
		<path fill="#FCD404" d="M75.4,33.88c0,0-0.16,2.78-0.77,3.02c-0.17,0.07-1.82,1.9-7.54-1.85c-5.16-3.39-7.81-1.24-7.81-1.24
			s0.3-3.84,2.81-3.61c0.41,0.04-1.5-0.64-1.5-0.64s0.29-0.98,3.43-0.71c0.42,0.04-1.24-1.17-1.24-1.17s0.54-1.18,5.14,3.29
			C72.29,35.19,75.4,33.88,75.4,33.88z"/>
		<path fill="#FCD404" d="M85.45,36.36c0,0-0.46,2.72,0,3.15c0.13,0.12,0.5,2.36,7.74-0.28c5.8-2.12,7.87-0.09,7.87-0.09
			s1.23-1.95-1.54-2.5c-0.4-0.08,1.59,0.07,1.59,0.07s0.61-0.98-2.46-1.7c-0.42-0.1,2.4,0.32,2.4,0.32s-2.74-3.57-8.05,0.06
			C87.98,38.83,85.45,36.36,85.45,36.36z"/>
		<path fill="#FCD404" d="M110.48,29.83c0,0-7.15,3.51-16.82,1.42c-9.25-1.99-16.32-7.87-24.63-14.53
			c-2.69-2.15-5.21-3.34-7.51-3.89c-7.55-1.83-12.66,3.22-12.93,3.49c0.02-0.07,0.17-0.41,0.45-0.93c0-0.01,0.01-0.02,0.02-0.03
			c0.91-1.44,1.96-2.86,3.16-4.25c3.98-3.99,11.57-7.89,24.46-1.86c3.67,1.72,5.97,3.54,8.45,5.52c2.16,1.7,4.45,3.51,7.91,5.44
			c7.21,4.04,13.38,3.31,13.38,3.31s-4.98,2.96-13.4,0.39c-4-1.23-7.7-3.92-14.18-8.23c-2.78-1.84-7.5-2.94-7.5-2.94
			s3.66,1.92,6.4,3.93c5.18,3.8,11.94,9.09,16.07,10.48C101.18,29.63,110.48,29.83,110.48,29.83z"/>
		<path fill="#FBED07" d="M52.22,11.11c-1.2,1.39-2.25,2.81-3.16,4.25C49.59,14.36,50.61,12.73,52.22,11.11z"/>
		<path fill="#FBED07" d="M117.39,29.95c0.01,2.98-0.13,9.06-1.41,14.38c-0.82,3.42-1.72,6.1-2.59,8.16
			c-0.07-0.74-0.18-1.32-0.26-1.69v-0.01c0.22-0.63,0.43-1.25,0.64-1.87c1.15-3.38,1.3-6.98,0.86-10.47l-5.25,20.4
			c0.22-1.29,1.91-10.91,2.35-16.07c0.33-3.79-1.01-8.2-1.61-9.96c0.95-0.19,1.82-0.42,2.62-0.67l1.66,4.8
			c-0.29-1.7-0.72-3.35-1.23-4.94c-0.15-0.5-0.31-0.98-0.49-1.46c-2.53-7.07-6.45-12.4-7.24-12.52l-20.31-3.26
			c-2.48-1.98-4.78-3.8-8.45-5.52C63.79,3.22,56.2,7.12,52.22,11.11c2.56-2.96,5.78-5.77,9.84-8.27c20.91-12.87,45,23.03,54.44,8.46
			C116.5,11.3,126.27,23.57,117.39,29.95z"/>
		<path fill="#FCD404" d="M114.4,36.95l-1.66-4.8c-0.8,0.25-1.67,0.48-2.62,0.67c-0.17-0.5-0.28-0.78-0.28-0.78l0.34-0.18l2.5-1.31
			c0.18,0.48,0.34,0.96,0.49,1.46C113.68,33.6,114.11,35.25,114.4,36.95z"/>
		<path fill="#FCD404" d="M113.13,50.79v0.01c0.08,0.37,0.19,0.95,0.26,1.69v0.01c-0.91,2.21-1.78,3.72-2.49,4.72
			c0,0.01,0,0.01-0.01,0.01c-0.38,0.54-0.7,0.93-0.96,1.21l-0.01,0.01c-0.31,0.35-0.51,0.51-0.56,0.54v-0.02c0-0.01,0-0.01,0-0.02
			c0-0.02,0.01-0.06,0.02-0.1l5.25-20.4c0.44,3.49,0.29,7.09-0.86,10.47C113.56,49.54,113.35,50.16,113.13,50.79z"/>
	</g>
</g>
<g id="trump2">
</g>
<g id="trump1">
</g>
</svg>
