<?xml version="1.0" encoding="utf-8"?>
<!-- Generator: Adobe Illustrator 16.0.0, SVG Export Plug-In . SVG Version: 6.00 Build 0)  -->
<!DOCTYPE svg PUBLIC "-//W3C//DTD SVG 1.1//EN" "http://www.w3.org/Graphics/SVG/1.1/DTD/svg11.dtd">
<svg version="1.1" xmlns="http://www.w3.org/2000/svg" xmlns:xlink="http://www.w3.org/1999/xlink" x="0px" y="0px" width="89.24px"
	 height="127.55px" viewBox="0 0 89.24 127.55" enable-background="new 0 0 89.24 127.55" xml:space="preserve">
<g id="triangle-group">
</g>
<g id="mound">
</g>
<g id="windmil">
</g>
<g id="square">
</g>
<g id="triangle">
</g>
<g id="trump3">
</g>
<g id="trump2">
	<g>
		<path fill="#FFFFFF" stroke="#FCD404" stroke-miterlimit="10" d="M66.94,101.49c3.19-5.51,4.74-9.97,5.35-13.78
			c-24.51,9.98-49.7,3.27-70.65-15.91c-4.07,14.24,2.98,30.74,17.79,39.4C36.67,121.26,57.7,117.44,66.94,101.49z"/>
		<path fill="#EE8925" d="M72.28,87.71c1.39-8.74-2.21-13.99-2.49-20.32c-1.3-30-44.81-31.5-46.6-23.41
			c-2.01,9.1-12.87,11.18-18.68,21.09c-1.26,2.16-2.22,4.42-2.88,6.74C22.58,90.98,47.78,97.69,72.28,87.71z"/>
		<path fill="#EE8925" d="M70.27,52.83c-12.5,5.32-34.26,6.87-43.67-4.65c-0.65-0.79-3.4-4.21-3.4-4.21s0.53-10.07,13.44-20.84
			c10.9-9.09,20.61-11.82,25.12-6.41C65.74,21.51,82.06,47.82,70.27,52.83z"/>
		<path fill="none" stroke="#EE8925" stroke-width="0.7509" stroke-linecap="round" d="M46.3,56.77c-7.82-0.53-15.19-3.05-19.7-8.58
			c-0.5-0.61-2.25-2.78-3.02-3.74"/>
		<path fill="#EE8925" d="M29.26,125.03c0.02-0.61-0.19-1.2-0.16-1.82c0.03-0.68,0.16-1.35,0.22-2.02c0.04-0.53-0.04-1.09,0.06-1.61
			c0.01-0.03,0.02-0.07,0.03-0.11c2.94-1.21,5.13-4.56,4.64-8.85c-0.66-5.85-5.05-9.55-8.79-9.25c-3.73,0.31-6.19,2.92-6.61,7.65
			c-0.23,2.61,0.75,5.33,2.28,7.4c-0.2,0.47-0.33,0.94-0.4,1.46c-0.1,0.78-0.07,1.63,0.07,2.4c0.12,0.65,0.51,1.15,0.79,1.74
			c-0.52-0.11-1.05,0.14-1.4-0.17c-0.44-0.38-1.1-0.46-1.59-0.13c-0.96,0.64-0.16,1.71,0.62,2.02c0.55,0.22,0.8-0.05,1.22,0.46
			c0.38,0.46,0.92,0.62,1.49,0.74c0.69,0.14,1.36,0.18,2,0.51c0.56,0.29,0.85,0.82,1.35,1.17c0.81,0.55,1.76,1.24,2.78,0.79
			C28.7,127.04,29.23,125.91,29.26,125.03z"/>
		<path fill="none" stroke="#E87524" stroke-width="0.4506" stroke-linecap="round" d="M56.85,71.97
			c-0.59,9.36-4.46,12.34-7.43,10.93c-1.9-0.9-5.19-2.48-5.19-2.48s-0.63-1.25-1.42-0.17c-0.42,0.57-1.11,2.55-1.52,2.73
			c-0.09,0.04-0.25-0.02-0.35-0.07c-0.6-0.28,1.42-3.36,1.18-3.5c-0.19-0.11-1.96,2.34-2.42,2.03c-0.1-0.07-0.27-0.18-0.32-0.47
			c-0.05-0.34,1.9-2.36,1.9-2.36s-2.01,1.15-2.33,0.73c-0.05-0.06-0.11-0.15-0.14-0.23c-0.25-0.55,2.23-2.07,2.23-2.07
			s-2.16,0.16-2.25-0.39c-0.1-0.62,1.52-1.19,2.36-1.39c0.24-0.05,0.9-0.61,0.9-0.61s-0.51-1.78-0.58-2.4
			c-0.04-0.37-0.04-1.36,0.33-1.42c0.96-0.15,0.25,2,1.97,3.89c0.12,0.13,0.1,1.05,0.26,0.82c0.56-0.78,1.42-0.29,1.42-0.29
			s-0.45-3.6,0.13-7.32c0.64-4.1,2.46-8.36,5.77-8.46C54.52,59.38,57.25,65.72,56.85,71.97z M45.46,75.27l1.59,0.05"/>
		<path fill="none" stroke="#EE8925" stroke-width="0.4506" stroke-linecap="round" stroke-linejoin="round" d="M14.21,55.68
			c6.7,13,18.97,15.87,23.63,11.25"/>
		<path fill="none" stroke="#EE8925" stroke-width="0.4506" stroke-linecap="round" stroke-linejoin="round" d="M12.9,57.24
			c7.76,9.23,11.78,21.47,11.78,21.47"/>
		<path fill="#ECAD5D" d="M22.98,60.89c0.74,0.88,0.89,1.97,0.34,2.43c-0.55,0.46-1.59,0.11-2.32-0.77
			c-0.73-0.88-0.88-1.97-0.34-2.43C21.21,59.66,22.25,60.01,22.98,60.89z"/>
		<path fill="none" stroke="#ECAD5D" stroke-width="0.1502" d="M22.55,61.14c0.51,0.62,0.61,1.39,0.21,1.72
			c-0.4,0.33-1.13,0.09-1.65-0.53c-0.52-0.62-0.61-1.39-0.22-1.72C21.29,60.29,22.03,60.53,22.55,61.14z"/>
		<path fill="#4398D1" d="M3.38,80.54c0,0,1.26,0.77,1.73,1.28c0.37,0.4-0.16,1.07-0.39,1.3c-0.21,0.2-0.5,0.46-0.72,0.56
			c-0.24,0.11-0.87,0.13-1.07,0.05c-0.86-0.33-2.41-1.42-2.36-1.63c0.03-0.17,1.13,0.69,1.13,0.69s1.46-0.8,1.84-0.52
			c0.2,0.15-0.42,0.63-0.28,0.79c0.29,0.35,0.81-0.08,1.01-0.25c0.37-0.31,0.35-0.73,0.16-0.73c-0.91-0.01-1.19-0.3-1.19-0.3
			s-0.19-0.23,0.14-0.92C3.42,80.81,3.38,80.54,3.38,80.54z"/>
		<path fill="none" stroke="#FBED07" stroke-width="0.4506" stroke-miterlimit="10" d="M22.29,46.63c0.77-0.64,1.24-1,2.07-0.2
			c0.6,0.58,0.6,1.51,0.36,2.26c-0.2,0.65-1.01,1.24-1.76,0.92c-0.25-0.11-0.39-0.43-0.68-0.46c-0.27-0.03-0.53,0-0.85-0.05
			c-0.65-0.1,0.05-0.85,0.38-1.38c0.63-1.02,0.56-0.32,1.1,0.09c0.32,0.24,0.66,0.44,0.92,0.75c0.3,0.36,0.42,0.86,0.68,1.25
			c0.17,0.27,0.31,0.67,0.33,0.98c0.04,0.53-0.41,0.77-0.59,1.2c-0.22-0.47-0.12-0.72-0.68-0.94c-0.6-0.22-1.09-0.35-1.74-0.25
			c-1.28,0.19-1.73,0.95-1.24,2.17c0.36,0.91,0.36,2.63,1.57,2.8c1.02,0.15,1.78-1.51,1.96-2.35c0.24-1.17,0.2-2.2-0.53-3.19
			c-0.5-0.68-2.07-1.66-1.68-0.06c0.27,1.09-0.25,1.71-1.19,2.27c-0.37,0.22-0.62-0.11-0.97,0.18c-0.48,0.39-0.87,0.92-1.4,1.26
			c-0.11-0.19-0.64-1.4-0.54-1.56c0.07-0.1,1.37,0.71,1.48,0.79c0.63,0.47,1.01,1.03,1.5,1.62c0.2,0.24,0.42,0.46,0.58,0.72
			c-0.19,0.21-0.4,0.42-0.63,0.6c-0.54,0.43-0.91,0.14-1.46-0.12c-1.19-0.58-2.28-2.94-1.36-3.7c0.3-0.24,1.07-1.01,1.43-1.34
			C19.84,50.44,20.6,49.52,21,49c0.44,0.38,0.5,1.22,0.2,1.74c-0.23,0.41-0.76,1.22-1.13,1.53c-0.12-0.44,0.04-2.1-0.73-1.43
			c-0.71,0.62-0.47,1.15-0.31,1.96c0.15,0.77-0.21,1.85-0.99,2.16c-0.38,0.15-0.92-0.23-1.14-0.51c-0.35-0.43-0.06-0.84-0.17-1.3
			c-0.38,0.29-0.77,0.62-0.86,1.11c-0.05,0.29-0.27,0.92-0.19,1.21c-0.3-0.26-0.45-0.71-0.69-1"/>
		<path fill="none" stroke="#EE8925" stroke-width="0.7509" stroke-linecap="round" d="M24.15,41.05c0,0,5.15,5.09,11.37,0.05"/>
		
			<ellipse transform="matrix(0.9857 -0.1688 0.1688 0.9857 -3.8604 8.2012)" fill="#EE8925" cx="46.32" cy="26.81" rx="4.04" ry="5.22"/>
		<path fill="#ECAD5D" d="M51.96,24.66c-0.74,0.54-3.06,1.03-4.45-0.63c-1.38-1.66-1.06-4.73-0.43-5.26
			c1.57-1.33,5.87-0.61,7.25,1.05C55.71,21.48,53.32,23.65,51.96,24.66z"/>
		<path fill="none" stroke="#EE8925" stroke-width="0.3004" stroke-linecap="round" stroke-linejoin="round" d="M48.15,18.93
			c-1.39,1.76,2.58,5.67,2.58,5.67"/>
		<path fill="none" stroke="#EE8925" stroke-width="0.3004" stroke-linecap="round" stroke-linejoin="round" d="M47.09,18.53
			c-2.42,1.85,1.3,7.4,1.3,7.4"/>
		<path fill="none" stroke="#010101" stroke-width="0.3004" stroke-miterlimit="10" d="M52.57,22.31c-1.87-3.65-4.12-3.61-4.12-3.61
			s0.34,1.33,1.44,2.53"/>
		<path fill="#010101" d="M51.17,21.53c-0.35,0.29-1.05,0.19-1.48-0.32c-0.43-0.51-0.41-1.24-0.06-1.53c0.35-0.29,0.98-0.11,1.4,0.4
			C51.46,20.59,51.52,21.24,51.17,21.53z"/>
		<path fill="#010101" d="M34.06,30.15l4.54-3.77c0.77-0.63,1.22-2.06,0.58-2.82l-0.95-1.14c-0.1-0.11-0.21-0.2-0.34-0.28
			c-0.41,0.33-0.83,0.67-1.24,1.01c-2.37,1.97-4.32,3.93-5.92,5.8l0.81,0.97C32.16,30.68,33.29,30.78,34.06,30.15z"/>
		<path fill="#FFFFFF" d="M35.25,25.12c0.21,0.24,0.57,0.28,0.81,0.07l0.04-0.04c-0.05,0.2-0.01,0.41,0.13,0.58
			c0.23,0.28,0.64,0.31,0.92,0.08l0.06-0.05c-0.1,0.21-0.08,0.47,0.08,0.66c0.22,0.26,0.6,0.3,0.86,0.08l1.2-1
			c0.26-0.22,0.29-0.6,0.08-0.86c-0.17-0.21-0.45-0.27-0.69-0.18c0.17-0.24,0.17-0.56-0.03-0.8c-0.21-0.26-0.58-0.3-0.85-0.12
			c0.04-0.17,0-0.36-0.11-0.5c-0.15-0.17-0.42-0.3-0.65-0.29c-0.15,0.13-0.31,0.25-0.46,0.38c-0.54,0.45-1.08,0.89-1.56,1.35
			C35.05,24.71,35.12,24.97,35.25,25.12z"/>
		<path fill="none" stroke="#EE8925" stroke-width="0.3004" stroke-linecap="round" stroke-linejoin="round" d="M43.43,18.88
			c-0.33,5.28-4.07,6.64-4.07,6.64"/>
		<path fill="none" stroke="#EE8925" stroke-width="0.4506" stroke-linecap="round" stroke-linejoin="round" d="M43.94,47.03
			c6.14,12.01,13.41,5.53,13.41,5.53"/>
		<path fill="#FCD404" d="M85.81,42.37c-0.99,6.73-14,21.26-14,21.26s-1.42-0.61-4.11-0.38c-2.39,0.21-4.34,1.49-4.34,1.49
			l1.69-6.42l-2.22,0.95L65,54.23l-0.97,0.58c0,0,2.97-8.96,2.53-10.24c-0.48-1.39-4.99-0.64-4.99-0.64l9.16-4.94
			C70.73,38.99,86.37,38.58,85.81,42.37z"/>
		<path fill="#E87524" d="M64.67,51.84c-2.79,2.47-5.42,3.02-6.69,1.7c-1.29-1.34-0.82-2.64,1.58-5.51
			c2.11-2.51,4.46-5.31,7.47-3.36C69.24,46.1,67.02,49.76,64.67,51.84z"/>
		<path fill="none" stroke="#E87524" stroke-width="0.3004" d="M61.56,45.8c1.6-1.55,3.38-2.48,5.46-1.13
			c2.21,1.43-0.01,5.09-2.35,7.17c-2.79,2.47-5.42,3.02-6.69,1.7c-0.61-0.63-0.83-1.26-0.63-2.04"/>
		<path fill="none" stroke="#E87524" stroke-width="0.3004" d="M66.99,46.05c-2.92,6.75-7.91,7.38-8.22,7
			c-0.61-0.73,0.88-2.47,1.63-3.05c0.47-0.37,0.69-0.19,2.22-1.42"/>
		<path fill="none" stroke="#E87524" stroke-width="0.3004" d="M63.77,46.36c5.29,1.46-2.15,5.78-3.2,5.59"/>
		<path fill="#9B3021" d="M41.42,20.74c0.2,0.24,0.2,0.57,0,0.74c-0.2,0.16-0.52,0.11-0.73-0.14c-0.2-0.24-0.2-0.57,0-0.73
			S41.22,20.5,41.42,20.74z"/>
		<path fill="#FCD404" d="M50.08,14.99c0,0,0.09,0.8,0.67,1.13c2.58,1.45,4.91,0.35,6.03,1.6c1.02,1.14,0.46,2.02,0.46,2.02
			l-0.81-0.7c0,0,0.14,1.55-0.04,1.98c-0.19,0.46-0.92,0.88-0.92,0.88s-0.08-1.08-0.58-1.62c-2.35-2.51-4.95-1.73-5.73-2.49
			C47.5,16.17,50.08,14.99,50.08,14.99z"/>
		<g>
			<path fill="#FFFFFF" d="M33.44,29.87c0.14-0.04,0.43-0.23,0.79-0.49c-0.56-0.09-1.54-0.41-2.57-1.52
				c-0.26,0.27-0.45,0.49-0.69,0.77C31.68,29.22,32.81,30.07,33.44,29.87z"/>
			<path fill="#9B3021" d="M39.36,25.52c0.25-0.21,0.29-0.56,0.11-0.82c-0.03,0.34-0.15,0.69-0.33,1L39.36,25.52z"/>
			<path fill="#9B3021" d="M38.53,24.6c-0.01,0.04-0.03,0.07-0.04,0.11l0.14-0.12c0.04-0.04,0.08-0.07,0.11-0.12
				c-0.06,0.02-0.12,0.05-0.17,0.1L38.53,24.6L38.53,24.6L38.53,24.6z"/>
			<path fill="#9B3021" d="M36.84,28.27c1.64-1.36,3.36-2.99,3.49-4.09c0.13-1.04-1.08-1.96-1.92-2.47
				c-0.18,0.14-0.36,0.28-0.54,0.42c-0.41,0.33-0.82,0.66-1.24,1.01c0.03,0,0.06,0,0.09,0c0.27,0.01,0.72,0.03,1.12,0.15
				c0.13,0.04,0.26,0.09,0.37,0.16c0.1,0.06,0.2,0.13,0.27,0.21c0.18,0.22,0.18,0.55,0.03,0.94l-0.04,0.11
				c-0.22,0.51-0.63,1.11-1.17,1.75c-0.39,0.47-0.85,0.96-1.33,1.44c-0.53,0.53-1.22,1.1-1.76,1.49c-0.36,0.26-0.66,0.45-0.8,0.49
				c-0.63,0.2-1.76-0.65-2.46-1.24c-0.23,0.25-0.97,1.14-1.3,1.55c0.59,0.52,1.55,1.14,2.69,1C33.84,31,35.85,29.09,36.84,28.27z"/>
			<path fill="#ECAD5D" d="M42.37,22.14c0.62-0.32,0.86-1.54,0.95-2.6c-1.91,1.11-2.54,0.86-2.78,0.59
				c-0.18,0.13-0.36,0.26-0.54,0.39C40.35,21.08,41.42,22.63,42.37,22.14z"/>
			<path fill="#9B3021" d="M41.42,20.74c0.2,0.24,0.2,0.57,0,0.74c-0.2,0.16-0.52,0.11-0.73-0.14c-0.2-0.24-0.2-0.57,0-0.73
				S41.22,20.5,41.42,20.74z"/>
			<path fill="#ECAD5D" d="M48.7,15.48c-1.69,0.69-3.48,1.62-5.33,2.76c-0.93,0.57-1.87,1.2-2.83,1.88
				c0.24,0.28,0.87,0.53,2.78-0.59C44.52,18.84,46.25,17.6,48.7,15.48z"/>
		</g>
		<path fill="#FBED07" d="M59.17,45.73c0,0-4.66-13.9,2.57-20.66c0.09-0.08,0.27-0.25,0.27-0.25S66.66,31,73.97,36.85
			c9.6,7.68,11.87,5.23,11.87,5.23s-2.14,6.59-13.83,0.25C67.79,40.05,59.17,45.73,59.17,45.73z"/>
		<path fill="#ECAD5D" d="M65.43,27.3c-5.29,7.66-3.4,10.73-3.4,10.73s1.69-5.27,3.61-6.69c0.08-0.06-0.89,1.76-1.2,3.07
			c-0.38,1.58,0.12,2.68,0.12,2.68s0.42-1.63,0.78-2.37c0.4-0.82,1.46-2.09,1.46-2.09s-0.5,0.87-0.59,1.79
			c-0.07,0.74,0.14,1.78,0.14,1.78s0.61-2.47,2.88-4.64C70.25,30.58,66.24,26.13,65.43,27.3z"/>
		<path fill="#FCD404" d="M64.91,0.46c0,0,1.66,9.1,8.43,12.28c4.89,2.29,14.71,10.28,15.88,18.7c0.4,2.9-3.82,11.09-3.82,11.09
			s-3.44-0.38-8.3-3.14c-6.21-3.53-17.97-17.73-17.97-17.73S47.2,6.25,56.38,1.74C62.33-1.18,64.91,0.46,64.91,0.46z"/>
		<path fill="#FBED07" d="M55.56,10.12c0,0,1.98,14.65,19.15,19.11c12.7,3.29,11.13,12.85,11.13,12.85s5.25-5.14-3.36-12.31
			c-4.26-3.55-15.27-6.76-19.62-10.31C60.57,17.59,55.56,10.12,55.56,10.12z"/>
		<path fill="#FBED07" d="M61.19,10.9c0,0,2.9,5.77,13.22,9.72c19.62,7.51,11.44,21.47,11.44,21.47s1.74-12.47-12.87-18.88
			C60.72,17.82,61.19,10.9,61.19,10.9z"/>
		<path fill="#EE8925" d="M4.94,69.93c0.8-1.41,0.03-3.02-0.82-4.17c-0.71,1.28-1.3,2.6-1.8,3.94C3.78,70.81,4.35,70.98,4.94,69.93z
			"/>
	</g>
</g>
<g id="trump1">
</g>
</svg>
