<?xml version="1.0" encoding="utf-8"?>
<!-- Generator: Adobe Illustrator 16.0.0, SVG Export Plug-In . SVG Version: 6.00 Build 0)  -->
<!DOCTYPE svg PUBLIC "-//W3C//DTD SVG 1.1//EN" "http://www.w3.org/Graphics/SVG/1.1/DTD/svg11.dtd">
<svg version="1.1" xmlns="http://www.w3.org/2000/svg" xmlns:xlink="http://www.w3.org/1999/xlink" x="0px" y="0px"
	 width="283.69px" height="284.76px" viewBox="0 0 283.69 284.76" enable-background="new 0 0 283.69 284.76" xml:space="preserve">
<g id="triangle-group">
</g>
<g id="mound">
</g>
<g id="windmil">
	<path id="grass_8_" fill="#3D8732" d="M238.52,214.96c-38.21,21.89-77.88,41.04-105.8,53.41c-29.22,12.49-46.69,18.2-70.41,15.88
		c-22.05-2.32-44.83-11.97-55.34-24.32c-10.9-12.47-9.53-27.65,7.82-43.66c17.4-16.08,43.25-30.61,72.71-43.13
		c29.8-12.34,63.2-22.67,103.5-26.16c38.63-3.49,77.35,1.54,88.44,14.04C291.87,173.34,276.68,193.14,238.52,214.96z"/>
	<g id="wimndmill">
		<polygon fill="#E0F3FD" points="115.07,43.19 146.87,51.52 182.79,39.35 148.63,10.88 114.98,40.28 		"/>
		<polygon fill="#EC008C" points="202.74,190.08 146.28,237.59 145.69,44.51 182.79,39.35 		"/>
		<polygon fill="#ED1C24" points="146.96,236.43 146.28,235.88 128.26,221.38 103.99,201.82 88.64,189.46 93.48,162.06 
			94.73,154.93 97.99,136.53 104.54,99.44 107.51,82.6 109.65,70.5 112.05,56.84 114.98,40.28 146.87,44.12 146.87,51.52 
			146.88,63.4 146.88,78.84 146.9,93.19 146.9,108.5 146.91,113.8 146.91,125.72 		"/>
		<path fill="#0D0E0C" d="M129.39,209.81c0,4.12-0.4,8.04-1.13,11.57l-24.28-19.56c1.56-11.87,6.54-20.53,12.43-20.53
			C123.58,181.29,129.39,194.06,129.39,209.81z"/>
	</g>
	<g id="sails">
		<g>
			<polyline fill="none" stroke="#FFFFFF" stroke-width="19.8206" stroke-miterlimit="10" points="237.64,178.75 199.82,204.8 
				76.42,16.49 42.2,39.41 			"/>
			
				<line fill="none" stroke="#FFFFFF" stroke-width="4.5059" stroke-miterlimit="10" x1="117.02" y1="86.54" x2="87.82" y2="106.44"/>
			<line fill="none" stroke="#FFFFFF" stroke-width="4.5059" stroke-miterlimit="10" x1="102.56" y1="64.11" x2="73.37" y2="84"/>
			<line fill="none" stroke="#FFFFFF" stroke-width="4.5059" stroke-miterlimit="10" x1="88.11" y1="41.68" x2="58.91" y2="61.57"/>
			
				<line fill="none" stroke="#FFFFFF" stroke-width="4.5059" stroke-miterlimit="10" x1="203.79" y1="136.36" x2="174.59" y2="156.26"/>
			
				<line fill="none" stroke="#FFFFFF" stroke-width="4.5059" stroke-miterlimit="10" x1="189.33" y1="113.93" x2="160.14" y2="133.83"/>
			<polyline fill="none" stroke="#FFFFFF" stroke-width="19.8206" stroke-miterlimit="10" points="206.92,4.81 229.09,44.78 
				49.15,170.97 70.41,207.81 			"/>
			
				<line fill="none" stroke="#FFFFFF" stroke-width="4.5059" stroke-miterlimit="10" x1="115.94" y1="129.69" x2="133.73" y2="161.4"/>
			
				<line fill="none" stroke="#FFFFFF" stroke-width="4.5059" stroke-miterlimit="10" x1="94.51" y1="144.46" x2="112.29" y2="176.18"/>
			
				<line fill="none" stroke="#FFFFFF" stroke-width="4.5059" stroke-miterlimit="10" x1="73.08" y1="159.23" x2="90.87" y2="190.95"/>
			
				<line fill="none" stroke="#FFFFFF" stroke-width="4.5059" stroke-miterlimit="10" x1="186.53" y1="23.79" x2="204.32" y2="55.51"/>
			
				<line fill="none" stroke="#FFFFFF" stroke-width="4.5059" stroke-miterlimit="10" x1="165.11" y1="38.56" x2="182.89" y2="70.28"/>
			
				<line fill="none" stroke="#FFFFFF" stroke-width="4.5059" stroke-miterlimit="10" x1="143.68" y1="53.33" x2="161.47" y2="85.06"/>
			<path fill="#0D0E0C" d="M129.49,99.92c4.84-4.82,12.42-4.55,16.94,0.61c4.52,5.16,4.26,13.26-0.58,18.08
				c-4.83,4.82-12.42,4.55-16.94-0.61C124.4,112.83,124.66,104.74,129.49,99.92z"/>
			
				<line fill="none" stroke="#FFFFFF" stroke-width="4.5059" stroke-miterlimit="10" x1="64.61" y1="187.54" x2="149.61" y2="127.11"/>
			
				<line fill="none" stroke="#FFFFFF" stroke-width="4.5059" stroke-miterlimit="10" x1="102.31" y1="126.89" x2="45.65" y2="39.85"/>
			
				<line fill="none" stroke="#FFFFFF" stroke-width="4.5059" stroke-miterlimit="10" x1="130.28" y1="86.46" x2="217.88" y2="24.23"/>
			
				<line fill="none" stroke="#FFFFFF" stroke-width="4.5059" stroke-miterlimit="10" x1="215.98" y1="191.32" x2="158.53" y2="98.76"/>
			
				<line fill="none" stroke="#FFFFFF" stroke-width="4.5059" stroke-miterlimit="10" x1="116.51" y1="118.61" x2="59.85" y2="31.56"/>
			
				<line fill="none" stroke="#FFFFFF" stroke-width="4.5059" stroke-miterlimit="10" x1="116.67" y1="70.84" x2="204.27" y2="8.61"/>
			<line fill="none" stroke="#FFFFFF" stroke-width="4.5059" stroke-miterlimit="10" x1="76.11" y1="203" x2="161.11" y2="142.57"/>
			
				<line fill="none" stroke="#FFFFFF" stroke-width="4.5059" stroke-miterlimit="10" x1="233.71" y1="182.11" x2="176.26" y2="89.55"/>
		</g>
		
			<line fill="none" stroke="#FFFFFF" stroke-width="4.5059" stroke-miterlimit="10" x1="217.41" y1="156.03" x2="188.22" y2="175.93"/>
	</g>
</g>
<g id="square">
</g>
<g id="triangle">
</g>
<g id="trump3">
</g>
<g id="trump2">
</g>
<g id="trump1">
</g>
</svg>
